<?xml version="1.0" encoding="utf-8"?>
<!-- Generator: Adobe Illustrator 21.0.0, SVG Export Plug-In . SVG Version: 6.00 Build 0)  -->
<svg version="1.1" id="レイヤー_1" xmlns="http://www.w3.org/2000/svg" xmlns:xlink="http://www.w3.org/1999/xlink" x="0px"
	 y="0px" width="102px" height="1000px" viewBox="0 0 102 1000" style="enable-background:new 0 0 102 1000;" xml:space="preserve">
<style type="text/css">
	.st0{fill:#FAFAFA;}
	.st1{fill:#333333;}
	.st2{enable-background:new    ;}
	.st3{fill:#F29B8A;}
	.st4{fill:none;stroke:#333333;stroke-width:0.9428;stroke-miterlimit:10;}
	.st5{fill:none;stroke:#FFFFFF;stroke-width:0.9428;stroke-miterlimit:10;}
	.st6{fill:none;stroke:#F29B8A;stroke-width:0.9428;stroke-miterlimit:10;}
	.st7{fill:#FFFFFF;}
	.st8{fill:none;stroke:#AEAEAE;stroke-miterlimit:10;}
</style>
<rect x="31" y="0.3" class="st0" width="14.5" height="161.7"/>
<g>
	<path class="st1" d="M15.8,869.8c-0.7-0.4-1.9-0.6-3.3-0.1c-1.8,0.7-2.8,2.7-3.1,3.6c-0.3,0.7-0.3,1.3-0.4,1.8
		c-0.2,0.4-0.3,0.1-0.3,0c-0.1-0.5-0.1-1.1-0.4-1.8c-0.3-0.9-1.4-2.9-3.1-3.6c-1.4-0.5-2.7-0.4-3.3,0.1c-0.4,0.3-1,1-0.3,2.6
		s2.9,2.5,3.9,2.7c0.9,0.3,2.5,0.5,3,0.6l0,0v6.5c0,0.2,0.2,0.2,0.4,0.2s0.4,0,0.4-0.2v-6.5l0,0c0.5-0.1,2.1-0.3,3-0.6
		c1-0.3,3.1-1.1,3.9-2.7C16.8,870.8,16.3,870.1,15.8,869.8z"/>
	<g class="st2">
		<path class="st1" d="M34,870.1c0.4-0.4,0.5-0.5,1-0.9c0.7,0.5,0.9,0.7,1.6,1.2c0.2,0.1,0.2,0.2,0.2,0.3c0,0.2-0.2,0.2-0.9,0.3
			c-1.4,1-2.2,1.5-3.3,2.1c0.2,0.1,0.3,0.1,0.3,0.2c0,0.1-0.1,0.2-0.5,0.4v1.5h2.9c0.5-0.6,0.7-0.8,1.2-1.3c0.8,0.6,1,0.8,1.7,1.4
			c0.1,0.1,0.1,0.1,0.1,0.2c0,0.1-0.1,0.1-0.2,0.1h-5.7v2c0,0.7,0,1.3,0,2.9c0,0.7-0.2,1-0.6,1.3c-0.4,0.2-1.1,0.4-1.6,0.4
			c-0.1,0-0.2,0-0.2-0.2c0-0.3-0.1-0.5-0.3-0.7c-0.4-0.4-0.7-0.5-2.5-0.9v-0.2c2.2,0.1,2.2,0.1,3.2,0.1l0,0c0.2,0,0.2,0,0.2-0.3
			v-4.5h-4.1c-0.5,0-1,0-1.4,0.1l-0.1-0.5c0.5,0.1,1,0.1,1.5,0.1h4.1v-0.3c0-1.2,0-1.5-0.1-2.1c0.8,0.1,1.1,0.2,1.6,0.2
			c0.5-0.6,1.2-1.5,1.8-2.6h-6.2c-0.5,0-0.9,0-1.2,0.1l-0.1-0.5c0.5,0.1,0.8,0.1,1.3,0.1L34,870.1L34,870.1z"/>
	</g>
	<g class="st2">
		<path class="st1" d="M49.3,871.5c3.3,0.7,4.1,1.1,4.1,2.1c0,0.6-0.2,1.1-0.5,1.1c-0.2,0-0.3-0.1-0.7-0.5c-0.3-0.4-0.7-0.8-1-1
			c-2.3,0.4-4.6,0.8-6.8,0.9c0.3,0.2,0.6,0.3,1.1,0.6h4.8c0.3-0.3,0.4-0.4,0.7-0.7c0.5,0.4,0.7,0.5,1.2,0.9c0.1,0.1,0.2,0.2,0.2,0.2
			c0,0.1-0.2,0.3-0.4,0.4v3.7v0.9c0,0.1,0,0.3,0,0.5c0,0.8-0.3,1-1.2,1.2c-0.2,0.1-0.7,0.1-0.9,0.1s-0.2,0-0.2-0.3
			c0-0.2-0.2-0.5-0.3-0.6c-0.2-0.3-0.6-0.4-1.6-0.7v-0.2c1.5,0.1,1.5,0.1,2.3,0.1c0.2,0,0.3,0,0.3-0.2v-1.6h-5.1v3
			c0,0.2-0.1,0.3-0.2,0.3c-0.1,0.1-0.5,0.1-0.9,0.1s-0.5-0.1-0.5-0.3v-0.1c0-1.2,0.1-4.3,0.1-6.1c0-0.4,0-1,0-1.5l-0.6,0.1
			c-0.2,0.4-0.3,0.6-0.4,0.6c-0.2,0-0.2-0.2-0.5-2c1,0.1,1,0.1,2.7,0.1c0.2-0.6,0.4-1,0.5-1.7h-2.9c-0.2,0-0.7,0-1,0.1l-0.1-0.5
			c0.3,0.1,0.8,0.1,1.1,0.1h4.3v-0.9c0-0.3,0-0.4-0.1-0.9c0.4,0,0.8,0.1,1,0.1c1,0.1,1.3,0.1,1.3,0.3c0,0.1-0.1,0.2-0.6,0.3v1.1h3.1
			c0.4-0.5,0.6-0.7,1-1.2c0.7,0.5,0.9,0.7,1.6,1.3c0.1,0,0.1,0.1,0.1,0.1c0,0.1-0.1,0.1-0.1,0.1h-6.6c-0.9,0.8-1.2,1.1-1.9,1.7
			c2.6,0,3.3,0,4.8-0.1c-0.6-0.5-0.8-0.6-1.5-1.1L49.3,871.5z M50.5,876.4V875h-5.1v1.4H50.5z M45.4,876.7v1.5h5.1v-1.5H45.4z"/>
	</g>
	<g class="st2">
		<path class="st1" d="M56.7,872.5c0.4,0,1-0.1,3.8-0.8c0.7-0.2,1.2-0.3,3.1-0.7c0.6-0.1,0.7-0.2,1.1-0.4c0.2-0.1,0.4-0.1,0.5-0.1
			c0.3,0,0.7,0.2,1.1,0.4s0.5,0.5,0.5,0.8s-0.3,0.5-0.7,0.5c-0.1,0-0.2,0-0.4,0c-0.2,0-0.2,0-0.4,0c-1.3,0-2.5,0.6-3.4,1.6
			c-0.7,0.8-1.1,1.8-1.1,2.8c0,1.2,0.6,2.1,1.7,2.5c0.4,0.1,0.8,0.2,1.1,0.2c0,0,0.1,0,0.2,0c0.1,0,0.1,0,0.1,0
			c0.3,0,0.5,0.1,0.7,0.3c0.3,0.3,0.5,0.7,0.5,1c0,0.4-0.3,0.7-1,0.7c-1,0-2.2-0.4-3-1.1c-1-0.8-1.5-1.8-1.5-3.1
			c0-1.2,0.6-2.5,1.6-3.5c0.5-0.6,1.1-0.9,2.2-1.6c-1.2,0.3-2.6,0.7-3.8,1.1c-1.2,0.4-1.5,0.6-2.1,1c-0.3,0.2-0.5,0.2-0.7,0.2
			c-0.8,0-1.8-1.3-1.8-2.3c0-0.1,0-0.2,0.1-0.4C55.7,872.2,56.1,872.5,56.7,872.5z"/>
	</g>
</g>
<g>
	<g>
		<path class="st1" d="M5,937H4.6c-2.3,0.1-3.3,2.3-3.3,4c0,0.2,0,0.4,0,0.6c0.1,1.3,0.5,2.1,1.3,3.1c0.7,0.8,1.3,1.2,1.6,1.3
			c0,1.9-0.1,4.8-0.2,7.4c-0.1,2.8-0.3,2.4,0,2.7c0.2,0.2,0.4,0.4,0.6,0.4h0.2c0.2-0.1,0.4-0.2,0.6-0.4c0.3-0.3,0.1,0.2,0-2.7
			c-0.1-2.6-0.1-5.5-0.2-7.4c0.3-0.1,0.9-0.4,1.6-1.3c0.8-1,1.2-1.7,1.3-3.1c0-0.2,0-0.4,0-0.6C8.3,939.3,7.3,937.1,5,937z"/>
		<path class="st1" d="M15.6,943.4l-0.2-5.7c0-0.2-0.2-0.4-0.4-0.4s-0.4,0.2-0.4,0.4l-0.1,4.8l0,0c0,0.3-0.2,0.6-0.3,0.7
			c-0.1,0-0.2,0-0.3-0.5l-0.1-5c0-0.2-0.2-0.4-0.4-0.4s-0.4,0.2-0.4,0.4l-0.1,5.1l0,0c0,0,0,0.6-0.3,0.7c-0.2,0-0.3-0.3-0.3-0.4
			l-0.1-5.3c0-0.2-0.2-0.4-0.4-0.4s-0.4,0.2-0.4,0.4l-0.1,4.9v0.1c-0.1,0.6-0.2,0.6-0.3,0.5c-0.1,0-0.3-0.4-0.3-0.7l0,0l-0.1-4.8
			c0-0.2-0.2-0.4-0.4-0.4s-0.4,0.2-0.4,0.4l-0.2,5.7c0,0.1,0,0.1,0.1,0.2c0.1,0.3,0.3,0.7,0.7,1.1c0.9,0.7,1.1,0.9,1.3,1.2
			c0.1,0.1,0.2,0.3,0.2,0.4c0,1.7-0.1,4.3-0.2,7.1c-0.1,2.8-0.3,2.4,0,2.7c0.2,0.2,0.4,0.4,0.6,0.4h0.2c0.2-0.1,0.4-0.2,0.6-0.4
			c0.3-0.3,0.1,0.2,0-2.7c-0.1-2.8-0.1-5.5-0.2-7.2c0-0.1,0.1-0.2,0.2-0.4c0.2-0.3,0.4-0.5,1.3-1.2c0.4-0.3,0.6-0.7,0.7-1.1
			C15.6,943.5,15.6,943.5,15.6,943.4z"/>
	</g>
	<g class="st2">
		<path class="st1" d="M32.5,946.4c-1,1.6-1.7,2.5-3,3.5c-1,0.9-2.1,1.6-4.1,2.6c-0.4,0.2-0.4,0.2-0.7,0.5c-0.1,0.1-0.3,0.2-0.4,0.2
			c-0.4,0-1.3-1.1-1.3-1.7c0-0.1,0-0.1,0.1-0.3c0.1-0.3,0.1-0.6,0.1-2.1s-0.1-3.9-0.1-4.5c-0.1-1-0.3-1.3-1.2-1.6
			c0.2-0.1,0.4-0.2,0.6-0.2c0.4,0,1.1,0.2,1.7,0.5s0.9,0.6,0.9,0.9c0,0.1,0,0.2-0.1,0.4c-0.1,0.3-0.2,0.6-0.2,1
			c-0.1,1.1-0.3,3.9-0.3,5.1c0,0.1,0,0.3,0,0.5c1.9-0.7,3.2-1.3,4.7-2.3c1.3-0.9,2.3-1.7,3.1-2.5L32.5,946.4z"/>
	</g>
	<g class="st2">
		<path class="st1" d="M37.4,945.7c1.2,0.1,2.3,0.4,2.8,0.7c0.4,0.3,0.6,0.6,0.6,1c0,0.6-0.3,1-0.7,1c-0.2,0-0.3-0.1-0.6-0.4
			c-0.2-0.3-0.7-0.9-1-1.2s-0.6-0.6-1.2-0.9L37.4,945.7z M48.8,945.1c-1.5,2.6-4,5-7.3,7c-0.8,0.5-0.9,0.5-1.2,0.8
			c-0.1,0.1-0.3,0.2-0.4,0.2c-0.7,0-1.9-1.6-1.9-2.5c0-0.1,0-0.2,0.1-0.4c0.3,0.6,0.8,1,1.2,1s1.6-0.5,3-1.3c2.2-1.3,4.5-3,6.3-4.9
			L48.8,945.1z M39,943c1.4,0.2,2.3,0.4,2.9,0.8c0.4,0.3,0.5,0.5,0.5,1s-0.3,1-0.7,1c-0.2,0-0.3-0.1-0.6-0.5
			c-0.5-0.9-1.3-1.6-2.2-2.1L39,943z"/>
	</g>
	<g class="st2">
		<path class="st1" d="M52,942.8c0.5,0,1.1,0.2,1.7,0.4s0.8,0.5,0.8,0.8c0,0.2,0,0.2-0.2,0.6c-0.2,0.3-0.3,0.8-0.4,1.9
			c0.2,0.1,0.3,0.1,0.6,0.1c0.5,0,1.6-0.2,2.5-0.5c0.7-0.2,1-0.4,1.4-0.7c0.1-0.1,0.3-0.1,0.4-0.1c0.3,0,0.6,0.1,0.9,0.3
			c0.4,0.2,0.5,0.4,0.5,0.6c0,0.3-0.2,0.5-0.9,0.6c-1.4,0.4-3.2,0.6-4,0.6c-0.6,0-1-0.2-1.4-0.5c-0.1,0.9-0.1,2-0.1,2.5
			c0,1,0.1,1.4,0.3,1.6c0.3,0.3,0.7,0.4,1.5,0.4c0.7,0,1.8-0.1,2.4-0.2c0.4-0.1,0.5-0.1,0.8-0.3c0.2-0.1,0.4-0.1,0.5-0.1
			c0.2,0,0.6,0.1,0.8,0.3c0.4,0.3,0.5,0.5,0.5,0.7c0,0.3-0.2,0.5-0.6,0.6c-0.5,0.2-2,0.3-3.3,0.3c-1.2,0-2.1-0.1-2.6-0.3
			c-0.9-0.4-1.3-1-1.5-2.2c-0.1-0.5-0.1-1.2-0.1-2.9c0-0.2,0-0.4,0-0.6c0-0.5,0-1,0-1.1c0-0.5,0-1.2,0-1.4c-0.1-0.7-0.4-1.1-1.2-1.3
			C51.6,942.9,51.7,942.8,52,942.8z M62.1,943.4c0,0.8-0.6,1.4-1.4,1.4c-0.8,0-1.4-0.6-1.4-1.4c0-0.8,0.6-1.4,1.4-1.4
			S62.1,942.7,62.1,943.4z M59.8,943.4c0,0.5,0.4,1,1,1c0.5,0,1-0.4,1-1c0-0.5-0.4-1-1-1C60.2,942.5,59.8,942.9,59.8,943.4z"/>
	</g>
</g>
<g>
	<g>
		<path class="st1" d="M22,743.6c0.2-0.1,0.3-0.3,0.3-0.5v-5.3c0-0.3-0.2-0.5-0.5-0.5H21v-3.4c0-0.3-0.2-0.5-0.5-0.5H3.2
			c-0.3,0-0.5,0.2-0.5,0.5v3.4H1.8c-0.3,0-0.5,0.2-0.5,0.5v5.3c0,0.2,0.1,0.4,0.3,0.5H22z"/>
		<path class="st1" d="M4,744v1.6c0,0.1,0.1,0.2,0.2,0.2h0.6c0.1,0,0.2-0.1,0.2-0.2V744H4z"/>
		<path class="st1" d="M18.5,744v1.6c0,0.1,0.1,0.2,0.2,0.2h0.6c0.1,0,0.2-0.1,0.2-0.2V744H18.5z"/>
	</g>
	<g class="st2">
		<path class="st1" d="M32.3,733c0.4,0,0.9,0.2,1.4,0.5c0.6,0.4,1,0.9,1,1.3c0,0.3-0.2,0.5-0.9,1c-1.1,0.7-1.9,1.3-2.7,2
			c-0.6,0.6-0.9,1-0.9,1.3c0,0.2,0.1,0.4,0.4,0.7c0.3,0.2,0.3,0.2,1.3,1c0.6,0.5,1.5,1.2,2,1.8c0.6,0.6,0.9,1.2,0.9,1.8
			c0,0.8-0.4,1.3-0.9,1.3c-0.3,0-0.5-0.2-0.7-0.7c-0.5-1.2-1.2-2.3-2.4-3.7c-0.8-0.9-0.9-1.1-1.1-1.4c-0.2-0.3-0.2-0.5-0.2-0.8
			c0-0.4,0.1-0.7,0.4-1.1c0.3-0.4,0.3-0.4,1.7-2.2c0.8-0.9,1.1-1.5,1.1-1.8c0-0.2-0.1-0.4-0.3-0.6c-0.2-0.2-0.2-0.2-0.5-0.4
			C32.1,733,32.2,733,32.3,733z"/>
	</g>
	<g class="st2">
		<path class="st1" d="M43.6,733c0.4,0.6,0.8,0.9,1.5,1.1c0.4,0.2,0.9,0.3,1.3,0.3c0.5,0,0.7,0.1,1,0.4c0.3,0.3,0.4,0.6,0.4,0.9
			c0,0.3-0.2,0.5-0.6,0.5c-0.1,0-0.2,0-0.8-0.1c-0.1,0-0.3,0-0.6,0c-0.9,0-1.9,0.1-2.6,0.4c-0.4,0.1-0.6,0.3-0.6,0.5
			s0.1,0.3,0.3,0.7c0.1,0.1,0.1,0.3,0.1,0.6c0,0.1,0,0.3,0,0.6c-0.1,1-0.1,1.9-0.1,2.2v0.1c1.8-1.2,3.2-1.7,4.4-1.7c1.8,0,3,1,3,2.5
			c0,0.9-0.4,1.7-1.3,2.3c-1.2,0.8-2.9,1.2-5.4,1.3v-0.2c1.7-0.3,2.7-0.7,3.6-1.4c0.9-0.7,1.3-1.4,1.3-2.3c0-1-0.6-1.6-1.6-1.6
			c-0.8,0-1.7,0.4-2.5,1.1c-0.5,0.4-0.9,1-1.1,1.4c-0.1,0.3-0.2,0.3-0.3,0.4c-0.1,0.1-0.3,0.2-0.4,0.2c-0.3,0-0.7-0.3-1-0.7
			c-0.2-0.3-0.3-0.6-0.3-0.8c0-0.1,0-0.1,0.1-0.5c0-0.1,0.1-0.4,0.2-0.9c0.1-0.5,0.1-0.9,0.2-1.2c0.1-0.9,0.2-1.3,0.2-1.5
			c0,0,0-0.1,0-0.2c0-0.1,0-0.1,0-0.1c0-0.5,0.2-0.8,0.7-1c0.3-0.2,0.6-0.3,1.6-0.6c0.7-0.2,0.7-0.2,1-0.3c-1-0.5-1.5-1.1-1.8-2.2
			L43.6,733z"/>
	</g>
	<g class="st2">
		<path class="st1" d="M64.1,741c-0.1,0.2-0.2,0.3-0.2,0.4c-0.5,1-0.6,1.1-0.9,1.4c-1.2,1.5-2.8,2.4-4.5,2.4c-1.2,0-2.1-0.4-2.6-1.3
			c-0.4-0.6-0.5-1.5-0.5-3c0-0.9,0-1.2,0.2-4.5c0-0.4,0-0.8,0-1.2c0-1-0.2-1.3-1.1-1.7c0.2-0.1,0.3-0.1,0.4-0.1
			c0.5,0,1.2,0.2,1.8,0.5s0.9,0.7,0.9,1c0,0.2,0,0.3-0.2,0.6c-0.4,0.9-0.9,4.3-0.9,6.2c0,1.3,0.6,1.9,1.9,1.9c1.2,0,2.5-0.4,3.7-1.2
			c0.7-0.4,1-0.7,1.8-1.6L64.1,741z"/>
	</g>
</g>
<g>
	<g>
		<path class="st1" d="M8,665c-3.7,0-6.7,3-6.7,6.7s3,6.7,6.7,6.7s6.7-3,6.7-6.7C14.6,668,11.7,665,8,665z M6.1,674.6
			c-0.6,0-1.1-0.5-1.1-1.1s0.5-1.1,1.1-1.1s1.1,0.5,1.1,1.1S6.7,674.6,6.1,674.6z M6.1,670.9c-0.6,0-1.1-0.5-1.1-1.1
			s0.5-1.1,1.1-1.1s1.1,0.5,1.1,1.1C7.2,670.5,6.7,670.9,6.1,670.9z M9.8,674.6c-0.6,0-1.1-0.5-1.1-1.1s0.5-1.1,1.1-1.1
			s1.1,0.5,1.1,1.1C10.9,674.1,10.4,674.6,9.8,674.6z M9.8,670.9c-0.6,0-1.1-0.5-1.1-1.1s0.5-1.1,1.1-1.1s1.1,0.5,1.1,1.1
			C10.9,670.5,10.4,670.9,9.8,670.9z"/>
	</g>
	<g class="st2">
		<path class="st1" d="M22.8,676c1.1-0.9,2.1-2,2.9-3.4c0.7-1.1,1.1-2,1.1-2.5c0-0.2-0.1-0.4-0.3-0.6c-0.1-0.1-0.2-0.2-0.5-0.3
			c0.2-0.1,0.3-0.1,0.4-0.1c0.4,0,1,0.2,1.6,0.6c0.6,0.4,0.9,0.7,0.9,1c0,0.2-0.1,0.3-0.3,0.4c-0.3,0.2-0.3,0.2-0.7,0.8
			c-1.1,1.4-1.9,2.2-3.2,3.1C24,675.5,23.6,675.7,22.8,676L22.8,676z M30.5,669.2c1.4,0.6,2.7,1.6,3.6,2.5c0.9,1,1.2,1.5,1.2,2.3
			c0,0.9-0.4,1.5-0.9,1.5c-0.3,0-0.4-0.1-0.6-0.8c-0.7-2.3-1.8-4-3.4-5.4L30.5,669.2z"/>
	</g>
	<g class="st2">
		<path class="st1" d="M38.5,668c1.6,0.3,2.4,0.5,3.1,0.9c0.5,0.3,0.7,0.7,0.7,1.2c0,0.7-0.3,1.2-0.8,1.2c-0.2,0-0.4-0.1-0.6-0.5
			c-0.7-1.2-1.4-2-2.5-2.6L38.5,668z M49.1,668.8c-0.8,1.6-1.7,2.9-3.2,4.3c-1.2,1.2-2.3,2-4.1,3.2c-0.4,0.2-0.6,0.4-0.8,0.6
			c-0.2,0.2-0.4,0.4-0.6,0.4c-0.4,0-0.9-0.4-1.4-1c-0.4-0.6-0.7-1.1-0.7-1.6c0-0.1,0-0.2,0.1-0.4c0.4,0.6,0.8,1,1.2,1
			c0.6,0,2.4-1,4.1-2.2c2.1-1.5,3.9-3.1,5.1-4.5L49.1,668.8z"/>
	</g>
	<g class="st2">
		<path class="st1" d="M55.6,673.7c0,0.5,0,0.8,0,2.8c0,0.3,0,0.4,0,0.6c0,0.5,0,0.7-0.1,0.9s-0.3,0.4-0.5,0.4
			c-0.3,0-0.5-0.2-0.7-0.5c-0.3-0.4-0.5-0.9-0.5-1.2c0-0.2,0-0.2,0.1-0.5c0.2-0.7,0.3-2.1,0.3-5.5c0-2.5,0-3-0.2-3.4
			c-0.2-0.3-0.5-0.5-1-0.7c0.2-0.1,0.3-0.1,0.5-0.1c0.5,0,1.1,0.2,1.7,0.5c0.5,0.3,0.7,0.5,0.7,0.8c0,0.1,0,0.2-0.1,0.4
			c-0.3,0.4-0.3,0.7-0.3,2.8c1.4,0.1,2.6,0.4,3.4,0.7c0.7,0.3,1,0.7,1,1.4c0,0.6-0.3,1-0.6,1c-0.2,0-0.3-0.1-0.6-0.5
			c-0.9-1-2-1.8-3.1-2.2v0.3C55.6,671.7,55.6,673.7,55.6,673.7z M58,667.1c1.9,0.6,2.5,1.1,2.5,1.8c0,0.4-0.2,0.7-0.5,0.7
			c-0.1,0-0.3-0.1-0.4-0.3c-0.5-1-0.9-1.4-1.7-2L58,667.1z M59.3,666.1c0.7,0.1,1.1,0.3,1.7,0.6c0.5,0.3,0.8,0.6,0.8,1
			s-0.2,0.7-0.4,0.7c-0.1,0-0.2-0.1-0.3-0.3c-0.4-0.6-0.5-0.7-0.8-1.1c-0.3-0.3-0.5-0.5-1-0.8V666.1z"/>
	</g>
	<g class="st2">
		<path class="st1" d="M66.9,669.5c1.3,0.5,2.5,1,3.7,1.8c1-1.6,1.6-2.9,1.6-3.5c0-0.5-0.3-0.8-0.9-1.2c0.1-0.1,0.2-0.1,0.4-0.1
			c0.6,0,1.4,0.4,2.1,0.9c0.4,0.3,0.6,0.6,0.6,0.9c0,0.2-0.1,0.3-0.4,0.5c-0.2,0.2-0.3,0.3-0.6,0.8c-0.1,0.1-0.1,0.1-0.5,0.8
			c-0.1,0.1-0.3,0.5-0.7,1.1c-0.1,0.1-0.1,0.2-0.2,0.4c1.6,1.1,1.9,1.5,1.9,2.4c0,0.6-0.3,1.1-0.7,1.1c-0.2,0-0.3-0.1-0.5-0.4
			c-0.5-0.7-0.9-1.3-1.5-1.9c-1.1,1.5-1.9,2.3-3,3.2c-1.1,0.8-1.9,1.3-3.4,1.9l-0.1-0.2c2-1.5,3.9-3.6,5.5-5.9
			c-1-0.9-2.3-1.8-3.2-2.5L66.9,669.5z"/>
	</g>
	<g class="st2">
		<path class="st1" d="M78.9,674.7c1.7-1,3.5-2.4,5.2-4.2c1.5-1.5,2.4-2.6,2.4-3.1c0-0.3-0.3-0.7-0.8-0.9c0.2,0,0.3-0.1,0.4-0.1
			c0.4,0,0.9,0.2,1.4,0.5c0.6,0.4,1,0.8,1,1.1s-0.1,0.3-0.6,0.7c-0.1,0-0.1,0-0.9,0.9c-1,0.9-1,0.9-2,1.8c0.5,0.3,0.8,0.6,1,0.8
			c0.1,0.2,0.1,0.3,0.2,1.4c0,0.6,0,0.8,0.1,3.5c0,0.2,0,0.4,0,0.5c0,0.6-0.2,0.9-0.6,0.9c-0.5,0-1.3-0.9-1.3-1.4
			c0-0.1,0-0.2,0.1-0.4c0.2-0.6,0.3-2.1,0.3-3.6c0-0.7,0-0.9-0.2-1.2c-1.2,0.9-2.2,1.5-3,2c-0.8,0.4-1.8,0.9-2.6,1.1L78.9,674.7z"/>
	</g>
	<g class="st2">
		<path class="st1" d="M95.3,673.7c0,0.5,0,0.8,0,2.8c0,0.3,0,0.4,0,0.6c0,0.5,0,0.7-0.1,0.9s-0.3,0.4-0.5,0.4
			c-0.3,0-0.5-0.2-0.7-0.5c-0.3-0.4-0.5-0.9-0.5-1.2c0-0.2,0-0.2,0.1-0.5c0.2-0.7,0.3-2.1,0.3-5.5c0-2.5,0-3-0.2-3.4
			c-0.2-0.3-0.5-0.5-1-0.7c0.2-0.1,0.3-0.1,0.5-0.1c0.5,0,1.1,0.2,1.7,0.5c0.5,0.3,0.7,0.5,0.7,0.8c0,0.1,0,0.2-0.1,0.4
			c-0.3,0.4-0.3,0.7-0.3,2.8c1.4,0.1,2.6,0.4,3.4,0.7c0.7,0.3,1,0.7,1,1.4c0,0.6-0.3,1-0.6,1c-0.2,0-0.3-0.1-0.6-0.5
			c-0.9-1-2-1.8-3.1-2.2v0.3C95.3,671.7,95.3,673.7,95.3,673.7z M97.7,667.1c1.9,0.6,2.5,1.1,2.5,1.8c0,0.4-0.2,0.7-0.5,0.7
			c-0.1,0-0.3-0.1-0.4-0.3c-0.5-1-0.9-1.4-1.7-2L97.7,667.1z M99,666.1c0.7,0.1,1.1,0.3,1.7,0.6c0.5,0.3,0.8,0.6,0.8,1
			s-0.2,0.7-0.4,0.7c-0.1,0-0.2-0.1-0.3-0.3c-0.4-0.6-0.5-0.7-0.8-1.1c-0.3-0.3-0.5-0.5-1-0.8L99,666.1z"/>
	</g>
</g>
<g>
	<g>
		<path class="st1" d="M12.7,596.4c-0.1,0-0.2,0-0.3,0c-0.1,0.1-0.1,0.2,0,0.3c0.7,1.2,1.1,2.6,1.1,4c0,4.2-3.4,7.5-7.5,7.5
			c-1.2,0-2.3-0.3-3.3-0.8c-0.1,0-0.2,0-0.3,0c-0.1,0.1-0.1,0.2,0,0.3c1.5,2.4,4,3.8,6.8,3.8c4.4,0,8-3.6,8-8
			C17.1,600.5,15.4,597.7,12.7,596.4z"/>
		<path class="st1" d="M5.2,605c0.1,0.1,0.2,0.2,0.3,0.2c0,0,0,0,0.1,0c0.2,0,0.3-0.2,0.3-0.3l0.4-2.4l2.4-0.4
			c0.2,0,0.3-0.2,0.3-0.3c0-0.2-0.1-0.3-0.2-0.4l-2.2-1.1l0.4-2.4c0-0.2-0.1-0.3-0.2-0.4c-0.1-0.1-0.3,0-0.4,0.1l-1.7,1.7l-2.2-1.1
			c-0.1-0.1-0.3,0-0.4,0.1C2,598.4,2,598.6,2,598.7l1.1,2.2l-1.7,1.7c-0.1,0.1-0.1,0.3-0.1,0.4c0.1,0.1,0.2,0.2,0.4,0.2l2.4-0.4
			L5.2,605z"/>
	</g>
	<g class="st2">
		<path class="st1" d="M32.5,599.6c0.5-0.6,0.6-0.8,1.1-1.3c0.7,0.6,1,0.8,1.7,1.4c0.1,0.1,0.1,0.1,0.1,0.1c0,0.1-0.1,0.1-0.2,0.1
			h-5.6v3.3h2.5c0.4-0.4,0.5-0.5,0.9-0.9c0.5,0.4,0.7,0.5,1.1,0.9c0.2,0.1,0.2,0.2,0.2,0.3s-0.1,0.2-0.5,0.5c0,0.5,0,0.9,0,1.1
			c0,1.5,0,2.8,0.1,4c0,0.2-0.1,0.3-0.2,0.4c-0.1,0-0.6,0.1-1,0.1s-0.5-0.1-0.5-0.3v-0.8h-6.4v0.7c0,0.2-0.1,0.3-0.2,0.3
			s-0.6,0.1-0.9,0.1c-0.4,0-0.5-0.1-0.5-0.3c0-1.4,0-2.1,0-3.2c0-1.9,0-2.9-0.1-3.8c0.8,0.4,1.1,0.5,1.9,1h2v-4.5
			c0-1.2,0-1.5-0.1-2.1c2.2,0.2,2.3,0.2,2.3,0.4c0,0.1-0.2,0.2-0.7,0.4v2.2h3C32.5,599.7,32.5,599.6,32.5,599.6z M25.8,608h6.4v-4.6
			h-6.4C25.8,603.4,25.8,608,25.8,608z"/>
		<path class="st1" d="M41.6,602.3c-0.6,1.5-0.7,1.8-0.8,2.5c-0.1,0.5-0.2,0.9-0.2,1.2s0,0.4,0.2,0.9c0,0.1,0,0.2,0,0.3
			c0,0.4-0.3,0.7-0.7,0.7c-0.6,0-1.3-0.5-1.8-1.3c-0.7-1.1-1.1-2.5-1.1-4.4c0-0.1,0-0.1,0-1.3c0-0.1,0-0.2,0-0.2
			c0-1.1-0.1-1.5-0.8-2.3c0.3,0,0.5,0.1,1,0.3c0.7,0.4,1.2,0.9,1.4,1.4c0.1,0.2,0.1,0.3,0.1,0.5c0,0.1,0,0.2-0.1,0.5
			c-0.2,0.7-0.3,1.5-0.3,2.1s0.1,1.2,0.3,1.8c0.1,0.4,0.3,0.6,0.5,0.8c0.9-1.6,1.5-2.5,2.1-3.4L41.6,602.3z M44.2,599.8
			c1.3,0.2,2.2,0.7,2.9,1.6c0.7,0.8,1,1.8,1,2.8s-0.5,1.6-1.2,1.6c-0.2,0-0.4-0.1-0.6-0.3c-0.3-0.4-0.6-0.4-2.1-0.5v-0.1
			c1.2-0.4,1.8-0.5,2-0.6c0.3-0.1,0.3-0.2,0.3-0.4c0-0.6-0.2-1.4-0.4-2c-0.4-0.9-1-1.5-1.9-1.9V599.8z"/>
	</g>
</g>
<g>
	<g>
		<polygon class="st1" points="6.9,804.3 6.9,803.8 6.9,803.8 		"/>
		<path class="st1" d="M1.4,804.7C1.4,804.7,1.3,804.8,1.4,804.7l-0.1,10.5c0,0,0,0.1,0.1,0.1h12.2c0,0,0.1,0,0.1-0.1v-10.5
			c0,0,0-0.1-0.1-0.1L1.4,804.7L1.4,804.7z M8.6,814.8H6.4v-9.5h2.2V814.8z"/>
		<path class="st1" d="M10,804.3c0.8-0.3,1.7-0.8,2.1-1.5c0.3-0.5,0.4-1,0.3-1.5c-0.2-0.8-0.8-1.3-1.6-1.3c-1.2,0-2.6,1-3.2,2.5
			c-0.7-1.4-2.1-2.5-3.2-2.5c-0.8,0-1.4,0.5-1.6,1.3c-0.1,0.5,0,1.1,0.3,1.5c0.4,0.7,1.3,1.2,2.1,1.5H10z M10.8,801
			c0.3,0,0.5,0.2,0.6,0.5s0,0.5-0.1,0.7c-0.5,0.9-2.4,1.4-3,1.5l0,0C8.4,802.2,9.9,801,10.8,801z M6.8,803.8L6.8,803.8
			c-0.7-0.1-2.5-0.6-3.1-1.5c-0.1-0.2-0.2-0.5-0.1-0.7c0.1-0.4,0.3-0.5,0.6-0.5C5.2,801,6.7,802.2,6.8,803.8L6.8,803.8z M6.9,804.3
			v-0.5l0,0V804.3z"/>
	</g>
	<g class="st2">
		<path class="st1" d="M21.5,813.7c1.2-0.9,1.9-1.6,2.8-2.7c1.4-1.7,2.7-3.8,3.5-5.8c0.2-0.4,0.3-0.7,0.3-0.9c0-0.1-0.1-0.1-0.3-0.1
			c-0.5,0-1.8,0.3-3,0.6c-1,0.3-1.6,0.5-2.2,0.8c-0.1,0.1-0.3,0.1-0.5,0.1c-0.4,0-0.9-0.4-1.3-1.1c-0.3-0.4-0.4-0.7-0.4-1
			c0-0.1,0-0.2,0.1-0.4c0.3,0.7,0.8,0.9,1.5,0.9c0.6,0,2.2-0.2,4.5-0.6c1.1-0.2,1.1-0.2,1.5-0.4c0.1,0,0.2-0.1,0.3-0.1
			c0.2,0,0.7,0.3,1,0.6c0.5,0.4,0.7,0.8,0.7,1.1c0,0.2-0.1,0.3-0.3,0.5c-0.2,0.2-0.3,0.3-0.6,0.9c-1.4,2.6-2.5,4.2-4.1,5.5
			c-1.1,1-2,1.5-3.6,2.1L21.5,813.7z M32.4,802.6c0,0.8-0.6,1.4-1.4,1.4s-1.4-0.6-1.4-1.4c0-0.8,0.6-1.4,1.4-1.4
			C31.7,801.2,32.4,801.8,32.4,802.6z M30,802.6c0,0.5,0.4,1,1,1c0.5,0,1-0.4,1-1c0-0.5-0.4-1-1-1S30,802.1,30,802.6z"/>
	</g>
	<g class="st2">
		<path class="st1" d="M45.2,806.3c-1,1.6-1.7,2.5-3,3.5c-1,0.9-2.1,1.6-4.1,2.6c-0.4,0.2-0.4,0.2-0.7,0.5c-0.1,0.1-0.3,0.2-0.4,0.2
			c-0.4,0-1.3-1.1-1.3-1.7c0-0.1,0-0.1,0.1-0.3c0.1-0.3,0.1-0.6,0.1-2.1s-0.1-3.9-0.1-4.5c-0.1-1-0.3-1.3-1.2-1.6
			c0.2-0.1,0.4-0.2,0.6-0.2c0.4,0,1.1,0.2,1.7,0.5c0.6,0.3,0.9,0.6,0.9,0.9c0,0.1,0,0.2-0.1,0.4c-0.1,0.3-0.2,0.6-0.2,1
			c-0.1,1.1-0.3,3.9-0.3,5.1c0,0.1,0,0.3,0,0.5c1.9-0.7,3.2-1.3,4.7-2.3c1.3-0.9,2.3-1.7,3.1-2.5L45.2,806.3z"/>
	</g>
	<g class="st2">
		<path class="st1" d="M56.9,809.3c0.8-0.8,1.4-1.7,2-2.7c0.2-0.3,0.3-0.4,0.3-0.5s0-0.1-0.1-0.1c-0.4,0-2.9,0.9-4,1.4
			c-0.1,0.8-0.1,1.3-0.1,1.9c0,1.9,0.2,2.2,1.7,2.2c1,0,1.9-0.2,2.5-0.4c0.2-0.1,0.3-0.1,0.4-0.1c0.2,0,0.5,0.1,0.8,0.3
			c0.4,0.2,0.6,0.5,0.6,0.8s-0.2,0.5-0.5,0.5c-0.5,0.1-1.7,0.2-2.8,0.2c-2.1,0-3.1-0.4-3.5-1.4c-0.2-0.6-0.3-1.6-0.4-3.6
			c-1.6,0.8-1.6,0.8-1.9,1c-0.2,0.1-0.3,0.2-0.5,0.2c-0.7,0-1.7-1.2-1.7-2c0,0,0-0.1,0-0.2c0.4,0.5,0.8,0.8,1.2,0.8s1.4-0.3,2.8-0.7
			c0-1.7,0-2.8-0.1-3.2s-0.5-0.7-1.1-0.9c0.2-0.2,0.3-0.2,0.7-0.2c0.5,0,1.2,0.2,1.8,0.5c0.4,0.2,0.6,0.5,0.6,0.7
			c0,0.1,0,0.2-0.2,0.5c-0.2,0.4-0.3,1-0.4,2.3c1-0.3,2.3-0.8,2.8-0.9c0.7-0.3,0.7-0.3,1-0.5c0.2-0.1,0.3-0.2,0.5-0.2
			c0.3,0,0.8,0.3,1.4,0.7c0.4,0.3,0.6,0.6,0.6,0.8s-0.1,0.3-0.5,0.5c-0.3,0.1-0.4,0.2-0.8,0.5c-1.3,1-1.9,1.4-3.2,2L56.9,809.3z
			 M59,802.4c1.8,0.6,2.5,1,2.5,1.7c0,0.4-0.2,0.6-0.5,0.6c-0.1,0-0.3-0.1-0.4-0.3c-0.5-0.8-0.9-1.3-1.7-1.9L59,802.4z M60.2,801.3
			c0.7,0.1,1.3,0.3,1.8,0.5c0.4,0.2,0.7,0.6,0.7,1c0,0.3-0.2,0.6-0.4,0.6c-0.1,0-0.2-0.1-0.3-0.3C61.4,802.4,61,802,60.2,801.3
			L60.2,801.3z"/>
	</g>
	<g class="st2">
		<path class="st1" d="M66.6,803.4c1.6,0.3,2.4,0.5,3.1,0.9c0.5,0.3,0.7,0.7,0.7,1.2c0,0.7-0.3,1.2-0.8,1.2c-0.2,0-0.4-0.1-0.6-0.5
			c-0.7-1.2-1.4-2-2.5-2.6L66.6,803.4z M77.3,804.2c-0.8,1.6-1.7,2.9-3.2,4.3c-1.2,1.2-2.3,2-4.1,3.2c-0.4,0.2-0.6,0.4-0.8,0.6
			c-0.2,0.2-0.4,0.4-0.6,0.4c-0.4,0-0.9-0.4-1.4-1c-0.4-0.6-0.7-1.1-0.7-1.6c0-0.1,0-0.2,0.1-0.4c0.4,0.6,0.8,1,1.2,1
			c0.6,0,2.4-1,4.1-2.2c2.1-1.5,3.9-3.1,5.1-4.5L77.3,804.2z"/>
	</g>
	<g class="st2">
		<path class="st1" d="M80.2,801.9c0.4,0,1,0.2,1.5,0.4c0.6,0.3,0.9,0.6,0.9,0.9c0,0.1,0,0.2-0.1,0.4c-0.2,0.3-0.2,0.4-0.2,0.9
			c0,0.3-0.1,1.2-0.1,1.9c1.3,0.1,2.6,0.3,3.4,0.7c0.7,0.3,1,0.7,1,1.4c0,0.6-0.3,1-0.6,1c-0.2,0-0.3-0.1-0.7-0.5
			c-0.9-1-2-1.8-3.1-2.2c0,0.2,0,0.9,0,2.2c0,1.2,0,1.2,0,2.8c0,0.2,0,0.4,0,0.7c0,0.5,0,0.7-0.1,0.8c-0.1,0.2-0.3,0.3-0.5,0.3
			c-0.3,0-0.5-0.2-0.8-0.5c-0.3-0.4-0.5-0.8-0.5-1.1c0-0.2,0-0.2,0.1-0.6c0.2-0.7,0.3-2.3,0.3-5.9c0-2,0-2.5-0.3-2.9
			c-0.2-0.3-0.5-0.5-1-0.7C79.8,801.9,79.9,801.9,80.2,801.9z"/>
	</g>
</g>
<g>
	<g>
		<path class="st1" d="M2.5,525.6c-0.4,0-0.7,0.3-0.7,0.7v11.9c0,0.4,0.3,0.7,0.7,0.7h8.6c0.4,0,0.7-0.3,0.7-0.7v-11.9
			c0-0.4-0.3-0.7-0.7-0.7H2.5z"/>
		<path class="st1" d="M9.3,523.6c0-0.3-0.2-0.6-0.5-0.7v-1.4c0-0.2,0-0.5,0-0.7v-0.4c0-0.2-0.2-0.4-0.4-0.4H1.7
			c-0.2,0-0.4,0.2-0.4,0.4v0.3c0,0.2,0.2,0.3,0.4,0.3h2.4h0.8v0.4l0,0v1.4c-0.3,0.1-0.5,0.4-0.5,0.7v1.5h5v-1.4L9.3,523.6L9.3,523.6
			z"/>
	</g>
	<g class="st2">
		<path class="st1" d="M20.5,524.7c0.5,0,1.1,0.2,1.7,0.4c0.5,0.3,0.8,0.5,0.8,0.8c0,0.2,0,0.2-0.2,0.6c-0.2,0.3-0.3,0.9-0.4,1.9
			c0.2,0.1,0.3,0.2,0.6,0.2c0.5,0,1.6-0.2,2.5-0.5c0.7-0.2,1-0.3,1.4-0.7c0.1-0.1,0.3-0.1,0.4-0.1c0.3,0,0.6,0.1,0.9,0.3
			c0.4,0.2,0.5,0.4,0.5,0.6c0,0.3-0.2,0.5-0.9,0.6c-1.4,0.4-3.2,0.6-4,0.6c-0.6,0-1.1-0.2-1.5-0.5c-0.1,0.9-0.1,2-0.1,2.4
			c0,1,0.1,1.4,0.3,1.7c0.2,0.3,0.7,0.4,1.5,0.4c0.7,0,1.8-0.1,2.4-0.2c0.3-0.1,0.5-0.1,0.8-0.3c0.2-0.1,0.4-0.1,0.5-0.1
			c0.2,0,0.6,0.1,0.8,0.3c0.4,0.3,0.5,0.5,0.5,0.7c0,0.3-0.2,0.5-0.6,0.6c-0.5,0.2-2,0.3-3.3,0.3c-1.1,0-2.1-0.1-2.6-0.3
			c-0.9-0.4-1.3-1-1.5-2.2c-0.1-0.5-0.1-1.2-0.1-2.9c0-0.2,0-0.4,0-0.6c0-0.5,0-0.9,0-1.1c0-0.4,0-1.2,0-1.5
			c-0.1-0.7-0.4-1.1-1.2-1.3C20.1,524.8,20.2,524.7,20.5,524.7z M27.3,524.6c1.8,0.5,2.4,1,2.4,1.8c0,0.3-0.2,0.6-0.5,0.6
			c-0.1,0-0.3-0.1-0.4-0.4c-0.5-0.9-0.9-1.3-1.6-1.9L27.3,524.6z M28.5,523.6c1.7,0.4,2.5,0.8,2.5,1.5c0,0.4-0.2,0.6-0.4,0.6
			c-0.1,0-0.2-0.1-0.3-0.3C29.8,524.6,29.4,524.1,28.5,523.6L28.5,523.6z"/>
	</g>
	<g class="st2">
		<path class="st1" d="M37.2,528.9c0.5,0,1.5-0.1,2.2-0.3c0.4-0.1,0.5-0.1,0.7-0.3c0.1-0.1,0.2-0.1,0.4-0.1s0.7,0.3,1,0.6
			c0.3,0.2,0.4,0.4,0.4,0.6c0,0.1,0,0.2-0.2,0.4c-0.1,0.1-0.2,0.3-0.4,1c-0.4,1.6-0.4,1.6-0.6,2.3c1.6-0.1,1.6-0.1,2-0.2
			c0.1,0,0.2-0.1,0.2-0.1c0.2,0,0.4,0.1,0.7,0.3c0.4,0.3,0.6,0.5,0.6,0.8s-0.2,0.4-0.4,0.4c-0.1,0-0.2,0-0.4-0.1
			c-0.8-0.2-1.4-0.3-2.3-0.3c-1.1,0-2.3,0.1-3.5,0.4c-0.6,0.2-0.7,0.2-1.3,0.4c-0.2,0.1-0.3,0.1-0.4,0.1c-0.3,0-0.7-0.2-1-0.6
			c-0.3-0.4-0.5-0.9-0.5-1.1c0-0.1,0-0.2,0.1-0.3c0.3,0.5,0.7,0.8,1.2,0.8c0.2,0,0.6,0,1.2-0.1c1.2-0.2,1.2-0.2,1.9-0.3
			c0.5-0.1,0.5-0.1,0.7-0.1c0.2-1.1,0.6-3.3,0.6-3.8c0-0.1,0-0.1-0.1-0.1s-0.5,0.1-0.8,0.2c-0.6,0.1-1.2,0.4-1.5,0.5
			c-0.1,0-0.2,0.1-0.3,0.1c-0.3,0-0.5-0.2-0.7-0.5c-0.3-0.3-0.4-0.8-0.4-1.1c0-0.1,0-0.2,0.1-0.4C36.5,528.7,36.8,528.9,37.2,528.9z
			"/>
	</g>
	<g class="st2">
		<path class="st1" d="M49.2,528.8c0.3,0.2,0.6,0.3,1.4,0.3c0.6,0,3.1,0,5.5-0.1c0.2,0,1.1,0,1.6,0c1.4,0,1.8,0.1,2.1,0.3
			c0.1,0.1,0.2,0.3,0.2,0.4c0,0.3-0.3,0.6-0.9,0.7c-0.8,0.1-2,0.1-6.2,0.2c-0.6,0-0.7,0-1.7,0.1c-0.3,0-0.4,0-0.6,0.1
			s-0.4,0.1-0.5,0.1c-0.3,0-0.7-0.3-1-0.9c-0.3-0.6-0.5-1.1-0.5-1.5c0-0.2,0-0.3,0.2-0.5C48.8,528.5,48.9,528.6,49.2,528.8z"/>
	</g>
	<g class="st2">
		<path class="st1" d="M67,535.8c1-1.1,1.6-2,2.1-3.3c0.4-1,0.7-2.3,0.7-3c0-0.3-0.1-0.5-0.2-0.6c-1,0.1-2.2,0.5-2.9,0.8
			c-0.3,0.1-0.4,0.2-0.6,0.2c-0.4,0-0.8-0.3-1.2-0.9c-0.3-0.3-0.4-0.7-0.4-0.9c0-0.1,0-0.1,0.1-0.3c0.4,0.5,0.8,0.8,1.4,0.8
			c0.4,0,0.7,0,2.6-0.3c1.1-0.2,2.4-0.3,4.3-0.5c0.5-0.1,0.8-0.1,1.2-0.3c0.2-0.1,0.3-0.1,0.4-0.1c0.2,0,0.6,0.1,0.9,0.3
			c0.5,0.3,0.8,0.6,0.8,0.8c0,0.3-0.2,0.5-0.6,0.5c-0.1,0-0.1,0-0.3,0c-0.8-0.1-1.8-0.2-2.6-0.2c-0.9,0-1.3,0-2.1,0.1
			c0.8,0.5,1,0.6,1,1c0,0.6-0.6,2.1-1.2,3.2c-0.8,1.3-1.8,2.2-3.2,3.1L67,535.8z M66.8,524.4c0.5,0.5,1,0.8,1.7,0.8
			c0.5,0,1.3-0.1,2-0.3c0.5-0.1,0.7-0.2,1.2-0.5c0.2-0.1,0.3-0.1,0.4-0.1c0.2,0,0.4,0.1,0.8,0.3s0.5,0.5,0.5,0.7
			c0,0.3-0.2,0.4-0.8,0.5c-0.9,0.2-2.6,0.4-3.5,0.4c-1.1,0-1.8-0.5-2.4-1.6L66.8,524.4z"/>
		<path class="st1" d="M76.8,532.8c1-0.6,1.5-1,2.5-1.8c1.2-1,2.5-2.3,3.1-3.2c0.2-0.3,0.3-0.5,0.3-0.7c0-0.3-0.2-0.5-0.7-0.8
			c0.1,0,0.2-0.1,0.3-0.1c0.4,0,0.8,0.2,1.5,0.6c0.4,0.3,0.6,0.5,0.6,0.8c0,0.2-0.1,0.3-0.3,0.5c-0.2,0.1-0.2,0.1-0.7,0.6
			c-0.8,0.7-0.9,0.8-1.7,1.5c0.4,0.3,0.6,0.5,0.7,0.6c0.1,0.2,0.1,0.2,0.1,1.3c0,0.9,0,1.1,0.1,2.1c0,0.3,0,0.7,0,0.9
			c0,0.4-0.2,0.7-0.5,0.7c-0.5,0-1.1-0.7-1.1-1.2c0-0.1,0-0.2,0.1-0.3c0.1-0.3,0.1-0.4,0.2-0.7c0.1-0.5,0.1-1.6,0.1-2.1
			c0-0.6,0-0.7-0.1-0.9c-1.3,1-2.7,1.8-4.4,2.4L76.8,532.8z"/>
	</g>
</g>
<g>
	<g>
		<g>
			<path class="st3" d="M5,974H4.6c-2.3,0.1-3.3,2.3-3.3,4c0,0.2,0,0.4,0,0.6c0.1,1.3,0.5,2.1,1.3,3.1c0.7,0.8,1.3,1.2,1.6,1.3
				c0,1.9-0.1,4.8-0.2,7.4c-0.1,2.8-0.3,2.4,0,2.7c0.2,0.2,0.4,0.4,0.6,0.4h0.2c0.2-0.1,0.4-0.2,0.6-0.4c0.3-0.3,0.1,0.2,0-2.7
				c-0.1-2.6-0.1-5.5-0.2-7.4c0.3-0.1,0.9-0.4,1.6-1.3c0.8-1,1.2-1.7,1.3-3.1c0-0.2,0-0.4,0-0.6C8.3,976.3,7.3,974.1,5,974z"/>
			<path class="st3" d="M15.6,980.4l-0.2-5.7c0-0.2-0.2-0.4-0.4-0.4s-0.4,0.2-0.4,0.4l-0.1,4.8l0,0c0,0.3-0.2,0.6-0.3,0.7
				c-0.1,0-0.2,0-0.3-0.5l-0.1-5c0-0.2-0.2-0.4-0.4-0.4s-0.4,0.2-0.4,0.4l-0.1,5.1l0,0c0,0,0,0.6-0.3,0.7c-0.2,0-0.3-0.3-0.3-0.4
				l-0.1-5.3c0-0.2-0.2-0.4-0.4-0.4s-0.4,0.2-0.4,0.4l-0.1,4.9v0.1c-0.1,0.6-0.2,0.6-0.3,0.5c-0.1,0-0.3-0.4-0.3-0.7l0,0l-0.1-4.8
				c0-0.2-0.2-0.4-0.4-0.4s-0.4,0.2-0.4,0.4l-0.2,5.7c0,0.1,0,0.1,0.1,0.2c0.1,0.3,0.3,0.7,0.7,1.1c0.9,0.7,1.1,0.9,1.3,1.2
				c0.1,0.1,0.2,0.3,0.2,0.4c0,1.7-0.1,4.3-0.2,7.1c-0.1,2.8-0.3,2.4,0,2.7c0.2,0.2,0.4,0.4,0.6,0.4h0.2c0.2-0.1,0.4-0.2,0.6-0.4
				c0.3-0.3,0.1,0.2,0-2.7c-0.1-2.8-0.1-5.5-0.2-7.2c0-0.1,0.1-0.2,0.2-0.4c0.2-0.3,0.4-0.5,1.3-1.2c0.4-0.3,0.6-0.7,0.7-1.1
				C15.6,980.5,15.6,980.5,15.6,980.4z"/>
		</g>
		<g class="st2">
			<path class="st3" d="M32.5,983.4c-1,1.6-1.7,2.5-3,3.5c-1,0.9-2.1,1.6-4.1,2.6c-0.4,0.2-0.4,0.2-0.7,0.5
				c-0.1,0.1-0.3,0.2-0.4,0.2c-0.4,0-1.3-1.1-1.3-1.7c0-0.1,0-0.1,0.1-0.3c0.1-0.3,0.1-0.6,0.1-2.1s-0.1-3.9-0.1-4.5
				c-0.1-1-0.3-1.3-1.2-1.6c0.2-0.1,0.4-0.2,0.6-0.2c0.4,0,1.1,0.2,1.7,0.5s0.9,0.6,0.9,0.9c0,0.1,0,0.2-0.1,0.4
				c-0.1,0.3-0.2,0.6-0.2,1c-0.1,1.1-0.3,3.9-0.3,5.1c0,0.1,0,0.3,0,0.5c1.9-0.7,3.2-1.3,4.7-2.3c1.3-0.9,2.3-1.7,3.1-2.5
				L32.5,983.4z"/>
		</g>
		<g class="st2">
			<path class="st3" d="M37.4,982.7c1.2,0.1,2.3,0.4,2.8,0.7c0.4,0.3,0.6,0.6,0.6,1c0,0.6-0.3,1-0.7,1c-0.2,0-0.3-0.1-0.6-0.4
				c-0.2-0.3-0.7-0.9-1-1.2s-0.6-0.6-1.2-0.9L37.4,982.7z M48.8,982.1c-1.5,2.6-4,5-7.3,7c-0.8,0.5-0.9,0.5-1.2,0.8
				c-0.1,0.1-0.3,0.2-0.4,0.2c-0.7,0-1.9-1.6-1.9-2.5c0-0.1,0-0.2,0.1-0.4c0.3,0.6,0.8,1,1.2,1s1.6-0.5,3-1.3c2.2-1.3,4.5-3,6.3-4.9
				L48.8,982.1z M39,980c1.4,0.2,2.3,0.4,2.9,0.8c0.4,0.3,0.5,0.5,0.5,1s-0.3,1-0.7,1c-0.2,0-0.3-0.1-0.6-0.5
				c-0.5-0.9-1.3-1.6-2.2-2.1L39,980z"/>
		</g>
		<g class="st2">
			<path class="st3" d="M52,979.8c0.5,0,1.1,0.2,1.7,0.4s0.8,0.5,0.8,0.8c0,0.2,0,0.2-0.2,0.6c-0.2,0.3-0.3,0.8-0.4,1.9
				c0.2,0.1,0.3,0.1,0.6,0.1c0.5,0,1.6-0.2,2.5-0.5c0.7-0.2,1-0.4,1.4-0.7c0.1-0.1,0.3-0.1,0.4-0.1c0.3,0,0.6,0.1,0.9,0.3
				c0.4,0.2,0.5,0.4,0.5,0.6c0,0.3-0.2,0.5-0.9,0.6c-1.4,0.4-3.2,0.6-4,0.6c-0.6,0-1-0.2-1.4-0.5c-0.1,0.9-0.1,2-0.1,2.5
				c0,1,0.1,1.4,0.3,1.6c0.3,0.3,0.7,0.4,1.5,0.4c0.7,0,1.8-0.1,2.4-0.2c0.4-0.1,0.5-0.1,0.8-0.3c0.2-0.1,0.4-0.1,0.5-0.1
				c0.2,0,0.6,0.1,0.8,0.3c0.4,0.3,0.5,0.5,0.5,0.7c0,0.3-0.2,0.5-0.6,0.6c-0.5,0.2-2,0.3-3.3,0.3c-1.2,0-2.1-0.1-2.6-0.3
				c-0.9-0.4-1.3-1-1.5-2.2c-0.1-0.5-0.1-1.2-0.1-2.9c0-0.2,0-0.4,0-0.6c0-0.5,0-1,0-1.1c0-0.5,0-1.2,0-1.4
				c-0.1-0.7-0.4-1.1-1.2-1.3C51.6,979.9,51.7,979.8,52,979.8z M62.1,980.4c0,0.8-0.6,1.4-1.4,1.4c-0.8,0-1.4-0.6-1.4-1.4
				c0-0.8,0.6-1.4,1.4-1.4S62.1,979.7,62.1,980.4z M59.8,980.4c0,0.5,0.4,1,1,1c0.5,0,1-0.4,1-1c0-0.5-0.4-1-1-1
				C60.2,979.5,59.8,979.9,59.8,980.4z"/>
		</g>
	</g>
</g>
<polyline class="st4" points="0.3,16.3 8.3,8.3 0.3,0.3 "/>
<polyline class="st5" points="0.3,52 8.3,44 0.3,36 "/>
<polyline class="st6" points="0.3,88 8.3,80 0.3,72 "/>
<path id="twitter-1_2_" class="st7" d="M22.6,115.3c-0.8,0.4-1.7,0.7-2.7,0.8c1-0.6,1.7-1.6,2-2.7c-0.9,0.6-1.9,1-2.9,1.2
	c-0.8-1-2.1-1.6-3.4-1.6c-3,0-5.2,3-4.5,6.1c-3.9-0.2-7.3-2.2-9.6-5.2c-1.2,2.2-0.6,5.1,1.4,6.6c-0.8,0-1.5-0.2-2.1-0.6
	c-0.1,2.3,1.5,4.4,3.7,4.9c-0.5,0.2-1.2,0.2-2,0.1c0.6,2,2.3,3.4,4.3,3.4c-2,1.6-4.4,2.4-6.9,2.1c2.1,1.4,4.5,2.2,7.1,2.2
	c8.6,0,13.5-7.8,13.2-14.7C21.2,117.2,22,116.3,22.6,115.3z"/>
<path id="facebook-1_2_" class="st7" d="M2.2,161.4H0v3.2h2.2v9.6H6v-9.6h2.7l0.3-3.2H6c0,0,0-0.7,0-1.3c0-0.8,0.1-1.1,0.8-1.1
	c0.6,0,2.2,0,2.2,0v-4c0,0-2.4,0-2.8,0c-2.7,0-3.9,1.3-3.9,3.7C2.2,160.8,2.2,161.4,2.2,161.4z"/>
<g>
	<path class="st1" d="M29.2,455.1c0.5,0.5,1,0.7,1.7,0.7c0.4,0,0.9-0.1,1.4-0.2c0-0.3,0-0.5,0-0.8c0-1-0.1-1.5-0.2-1.7
		c-0.2-0.3-0.5-0.5-1.1-0.6c0.3-0.2,0.4-0.3,0.8-0.3c0.5,0,1.2,0.1,1.7,0.4c0.3,0.2,0.5,0.4,0.5,0.6c0,0.1,0,0.2-0.2,0.5
		c-0.2,0.4-0.3,0.8-0.4,1.6c0.5-0.2,0.7-0.3,1.1-0.6c0.2-0.2,0.3-0.2,0.5-0.2c0.3,0,0.7,0.1,0.8,0.3c0.1,0.1,0.1,0.2,0.1,0.3
		c0,0.3-0.3,0.5-0.9,0.7c-0.6,0.3-1.2,0.5-1.8,0.6c-0.1,0.8-0.1,1-0.1,2.2c1.3-0.5,2.3-0.7,3.4-0.7c2,0,3.3,1,3.3,2.6
		c0,1.5-1.1,2.6-2.6,2.6c-0.8,0-1.5-0.4-2-1.1c-0.3-0.4-0.5-0.8-0.7-1.6l0.1-0.1c0.6,1,1.2,1.5,2,1.5c1,0,1.7-0.8,1.7-1.9
		c0-1-0.7-1.5-1.9-1.5c-1,0-2.3,0.4-3.3,1c0,0.6,0,0.6,0.1,1.9c0,0.2,0,0.4,0,0.6c0,0.5-0.1,0.9-0.4,1.2c-0.2,0.3-0.5,0.5-0.8,0.5
		c-0.2,0-0.3-0.1-0.5-0.2c-0.1-0.1-0.1-0.1-0.3-0.3c-0.5-0.6-0.8-0.8-1.3-0.9c-0.3-0.1-0.4-0.1-0.5-0.2c-0.2-0.1-0.3-0.3-0.3-0.5
		c0-0.3,0.2-0.6,0.5-0.9c0.6-0.6,1.1-0.9,2.3-1.5c0-0.8,0-1.6,0.1-2.4c-0.4,0.1-0.6,0.1-0.9,0.1c-1.1,0-1.7-0.4-2.3-1.4L29.2,455.1z
		 M30.6,461.5c0,0.1,0.1,0.2,0.2,0.3c0.3,0.1,0.7,0.3,1,0.3c0.2,0,0.3-0.1,0.3-0.3c0-0.2,0.1-1.3,0.1-1.8
		C31.2,460.6,30.6,461.2,30.6,461.5z M36.8,453.7c0.3,0,0.4,0,0.6,0c0.8,0,1.4,0.1,2,0.5c0.6,0.3,0.9,0.8,0.9,1.3s-0.3,0.8-0.7,0.8
		c-0.1,0-0.2,0-0.4-0.1s-0.3-0.1-0.4-0.1c-0.3,0-0.9,0.1-1.7,0.3l-0.1-0.1c1-0.5,1.6-0.9,1.6-1.1c0-0.1-0.2-0.4-0.4-0.6
		c-0.4-0.4-0.8-0.6-1.5-0.7v-0.2L36.8,453.7L36.8,453.7z"/>
	<path class="st1" d="M45.5,455c0.4,0,0.9-0.1,3.6-0.8c0.7-0.2,1.1-0.3,3-0.7c0.5-0.1,0.7-0.2,1.1-0.3c0.2-0.1,0.4-0.1,0.5-0.1
		c0.2,0,0.7,0.2,1,0.4c0.3,0.2,0.5,0.5,0.5,0.7c0,0.3-0.3,0.5-0.7,0.5c-0.1,0-0.2,0-0.3,0c-0.2,0-0.2,0-0.4,0
		c-1.2,0-2.4,0.5-3.2,1.5c-0.7,0.8-1.1,1.7-1.1,2.6c0,1.1,0.6,2,1.6,2.4c0.3,0.1,0.7,0.2,1.1,0.2h0.1c0.1,0,0.1,0,0.1,0
		c0.3,0,0.5,0.1,0.7,0.3c0.3,0.3,0.5,0.7,0.5,1c0,0.4-0.3,0.6-0.9,0.6c-1,0-2.1-0.4-2.8-1c-0.9-0.7-1.4-1.8-1.4-3
		c0-1.1,0.5-2.3,1.5-3.3c0.5-0.5,1-0.9,2.1-1.5c-1.1,0.3-2.5,0.6-3.6,1.1c-1.1,0.4-1.4,0.6-2,0.9c-0.2,0.2-0.5,0.2-0.7,0.2
		c-0.7,0-1.7-1.3-1.7-2.1c0-0.1,0-0.2,0.1-0.4C44.5,454.7,44.9,455,45.5,455z M52.7,455.8c0.5,0.2,1,0.4,1.4,0.6
		c0.5,0.3,0.7,0.5,0.7,0.9s-0.2,0.7-0.5,0.7c-0.1,0-0.2-0.1-0.3-0.3c-0.4-0.9-0.7-1.3-1.4-1.8L52.7,455.8z M54,455.2
		c0.5,0.1,0.9,0.2,1.4,0.4c0.5,0.2,0.8,0.5,0.8,0.9s-0.2,0.7-0.5,0.7c-0.1,0-0.2-0.1-0.3-0.3C55,456.2,54.6,455.8,54,455.2L54,455.2
		z"/>
	<path class="st1" d="M62.4,460.8c1,0.5,1.7,0.8,1.9,0.8c0.3,0,0.5-0.2,0.7-0.6c0.6-1.1,1-2.9,1-4c0-0.8-0.2-1.1-0.8-1.1
		c-0.3,0-0.6,0.1-1.2,0.2c-1.3,3.1-2,4.8-2.2,5.3c-0.6,1.4-0.9,1.7-1.2,1.7s-0.6-0.5-0.6-1.3c0-0.5,0.1-0.7,0.4-1
		c0.6-0.7,1.4-2,2.4-4.4c-0.7,0.3-1.1,0.5-1.5,0.7c-0.2,0.1-0.3,0.1-0.4,0.1c-0.2,0-0.5-0.2-0.7-0.5c-0.3-0.4-0.5-0.9-0.5-1.2
		c0-0.1,0-0.2,0.1-0.3c0.3,0.6,0.6,0.8,1.2,0.8c0.3,0,1-0.1,2.1-0.4c0.3-0.8,0.5-1.6,0.5-2.1s-0.3-0.9-1.1-1.1
		c0.2-0.1,0.3-0.2,0.5-0.2c0.3,0,0.8,0.1,1.2,0.2c0.8,0.2,1.2,0.5,1.2,0.9c0,0.1,0,0.3-0.2,0.5c-0.3,0.4-0.4,0.7-0.8,1.7
		c0.5-0.1,0.7-0.1,1-0.1c0.6,0,1.1,0.2,1.4,0.6s0.4,0.9,0.4,1.8c0,1.6-0.6,3.7-1.3,4.6c-0.4,0.5-1.1,0.9-1.7,0.9
		c-0.2,0-0.4-0.1-0.5-0.2s-0.1-0.1-0.1-0.5c0-0.3-0.4-0.8-1.3-1.5L62.4,460.8z M68.1,455.2c1.1,0.2,1.9,0.6,2.6,1.3
		c0.7,0.7,1,1.5,1,2.3s-0.3,1.3-0.9,1.3c-0.2,0-0.4-0.1-0.6-0.3c-0.3-0.3-0.5-0.3-2.1-0.3v-0.1c1.1-0.3,1.7-0.5,2-0.6
		c0.1,0,0.1-0.1,0.1-0.2c0-0.3-0.2-0.9-0.3-1.3c-0.4-0.9-1-1.5-1.8-1.9L68.1,455.2z"/>
	<path class="st1" d="M79,457.5c-0.6,2.5-0.7,3.3-0.7,3.7c0,0.1,0,0.1,0.1,0.7c0,0.1,0,0.2,0,0.3c0,0.5-0.3,0.8-0.7,0.8
		c-0.3,0-0.5-0.1-0.7-0.4c-0.5-0.7-0.8-2.1-0.8-3.7c0-0.9,0.1-1.7,0.3-2.9c0.2-1.2,0.2-1.6,0.2-1.9c0-0.5-0.1-0.9-0.5-1.4
		c0.9,0.1,2.1,1.2,2.1,2.1c0,0.2-0.1,0.4-0.3,0.8c-0.5,1.1-0.8,2.4-0.8,3.5c0,0.7,0.1,1.2,0.3,1.6c0.1-0.3,0.1-0.3,0.3-0.8
		c0.3-0.7,0.3-0.7,0.8-1.8C78.7,457.9,78.8,457.7,79,457.5L79,457.5z M79.7,455.4c0.5,0.4,0.9,0.5,1.5,0.5s1.3-0.1,1.9-0.3
		c0-1.1-0.1-1.9-0.2-2.2c-0.2-0.4-0.4-0.6-1.3-0.8c0.3-0.2,0.5-0.3,1-0.3c0.6,0,1.3,0.1,1.6,0.3c0.2,0.1,0.4,0.3,0.4,0.5
		c0,0.1,0,0.2-0.1,0.6c-0.1,0.2-0.1,0.6-0.1,1.4c0.6-0.2,0.8-0.3,1.1-0.6c0.1-0.1,0.2-0.1,0.3-0.1c0.2,0,0.5,0.1,0.7,0.2
		s0.3,0.3,0.3,0.5l0,0c0,0.2-0.2,0.4-0.7,0.6c-0.4,0.2-0.6,0.2-1.7,0.5v0.6v1.6c0,1.7-0.3,2.8-1,3.6c-0.6,0.8-1.4,1.3-2.7,1.8
		l-0.1-0.1c1-0.7,1.4-1.3,1.8-2.1c0.5-1.1,0.7-2.5,0.7-4.6c0-0.1,0-0.3,0-0.6c-0.6,0.1-0.9,0.1-1.2,0.1c-1,0-1.7-0.3-2.4-1.2
		L79.7,455.4z"/>
</g>
<path class="st1" d="M22.1,456.6c-0.3-0.8-0.7-1.7-1.1-2.4c-0.7-1-1.2-1.2-2.4-1.2c-0.1,0-8.2,0-9.3,0c-0.1,0-0.2,0-0.2,0
	c-0.7,0.3-0.9,0.7-1.7,1.7c-0.6,0.8-1.6,2.3-1.6,2.3c-2.1,0.8-2.5,0.7-2.4,0.8c-1.6,0.4-1.2,0.4-1.7,0.9c-0.6,0.6-1.3,4.4,0.2,4.4
	h0.7c0,1.1,0.9,2,2,2c0.9,0,1.7-0.6,1.9-1.5c0.1-0.3,0.3-0.4,0.6-0.4l9.7-0.1v0.1c0,1.1,0.9,2,2,2c0.9,0,1.6-0.6,1.9-1.3
	c0.1-0.2,0.3-0.5,0.5-0.5c0.6-0.1,1.6-0.7,1.7-1c0.2-0.6,0.1-1.4,0.1-2.1C22.7,459,22.5,457.8,22.1,456.6z M4.5,463.9
	c-0.4,0-0.8-0.3-0.8-0.8c0-0.4,0.4-0.8,0.8-0.8s0.8,0.4,0.8,0.8C5.3,463.6,4.9,463.9,4.5,463.9z M13.3,456.5c0,0.3-0.3,0.6-0.6,0.6
	H6.9l0.6-1.1c1.1-1.6,1-1.9,1.7-2.2h3.3c0.4,0,0.8,0.3,0.8,0.8V456.5z M14.4,456.3v-1.8c0-0.5,0.4-0.8,0.8-0.8H18
	c0.4,0,0.5,0.4,0.5,0.4l0.2,2.3c0,0.3-0.2,0.6-0.6,0.6h-3C14.7,457,14.4,456.7,14.4,456.3z M18.6,463.9c-0.4,0-0.8-0.3-0.8-0.8
	c0-0.4,0.4-0.8,0.8-0.8s0.8,0.4,0.8,0.8C19.4,463.6,19,463.9,18.6,463.9z"/>
<polyline class="st8" points="35,0.8 35,155 43,155 "/>
<rect x="36" y="170" class="st3" width="4" height="4"/>
<line class="st8" x1="35" y1="113" x2="43" y2="113"/>
<g>
	<polygon class="st7" points="22.7,211.3 21,197.8 14.1,206.2 	"/>
	<path class="st7" d="M11.5,207c1-0.1,1.5-0.7,1.5-0.7l7.3-8.9l-19.8,2.4l9.3,6.9C9.9,206.7,10.5,207.1,11.5,207z"/>
	<polygon class="st7" points="0,200.3 1.7,214 8.7,206.8 	"/>
	<path class="st7" d="M13.6,206.7c0,0-0.7,0.8-2.1,1c-1.3,0.1-2.2-0.5-2.2-0.5l0,0l-7.1,7.2l20.1-2.5L13.6,206.7L13.6,206.7z"/>
</g>
<path class="st7" d="M11,232c2.9,0,3.3,0,4.4,0.1c1.1,0,1.7,0.2,2,0.4c0.5,0.2,0.9,0.4,1.3,0.8c0.4,0.4,0.6,0.8,0.8,1.3
	c0.2,0.4,0.3,1,0.4,2c0.1,1.2,0.1,1.5,0.1,4.4c0,2.9,0,3.3-0.1,4.4c0,1.1-0.2,1.7-0.4,2c-0.2,0.5-0.4,0.9-0.8,1.3
	c-0.4,0.4-0.8,0.6-1.3,0.8c-0.4,0.2-1,0.3-2,0.4c-1.2,0.1-1.5,0.1-4.4,0.1c-2.9,0-3.3,0-4.4-0.1c-1.1,0-1.7-0.2-2-0.4
	c-0.5-0.2-0.9-0.4-1.3-0.8c-0.4-0.4-0.6-0.8-0.8-1.3c-0.2-0.4-0.3-1-0.4-2C2,244.3,2,243.9,2,241c0-2.9,0-3.3,0.1-4.4
	c0-1.1,0.2-1.7,0.4-2c0.2-0.5,0.4-0.9,0.8-1.3c0.4-0.4,0.8-0.6,1.3-0.8c0.4-0.2,1-0.3,2-0.4C7.7,232,8.1,232,11,232 M11,230
	c-3,0-3.4,0-4.5,0.1c-1.2,0.1-2,0.2-2.7,0.5c-0.7,0.3-1.3,0.7-1.9,1.3c-0.6,0.6-1,1.2-1.3,1.9c-0.3,0.7-0.5,1.5-0.5,2.7
	C0,237.6,0,238,0,241c0,3,0,3.4,0.1,4.5c0.1,1.2,0.2,2,0.5,2.7c0.3,0.7,0.7,1.3,1.3,1.9c0.6,0.6,1.2,1,1.9,1.3
	c0.7,0.3,1.5,0.5,2.7,0.5C7.6,252,8,252,11,252c3,0,3.4,0,4.5-0.1c1.2-0.1,2-0.2,2.7-0.5c0.7-0.3,1.3-0.7,1.9-1.3
	c0.6-0.6,1-1.2,1.3-1.9c0.3-0.7,0.5-1.5,0.5-2.7C22,244.4,22,244,22,241c0-3,0-3.4-0.1-4.5c-0.1-1.2-0.2-2-0.5-2.7
	c-0.3-0.7-0.7-1.3-1.3-1.9c-0.6-0.6-1.2-1-1.9-1.3c-0.7-0.3-1.5-0.5-2.7-0.5C14.4,230,14,230,11,230"/>
<path class="st7" d="M11,235.4c-3.1,0-5.6,2.5-5.6,5.6c0,3.1,2.5,5.6,5.6,5.6c3.1,0,5.6-2.5,5.6-5.6C16.6,237.9,14.1,235.4,11,235.4
	 M11,244.7c-2,0-3.7-1.6-3.7-3.7c0-2,1.6-3.7,3.7-3.7c2,0,3.7,1.6,3.7,3.7C14.7,243,13,244.7,11,244.7"/>
<path class="st7" d="M18.2,235.1c0,0.7-0.6,1.3-1.3,1.3c-0.7,0-1.3-0.6-1.3-1.3c0-0.7,0.6-1.3,1.3-1.3
	C17.6,233.8,18.2,234.4,18.2,235.1"/>
</svg>
