<svg id="exblog_logo" data-name="exblog_logo" xmlns="http://www.w3.org/2000/svg" viewBox="0 0 224 56"><defs><style>.cls-1{fill:red;}</style></defs><title>exblog_logo</title><path d="M142.8,21.87h7.36v8.46a7.24,7.24,0,0,1,2.48-1.6,8.5,8.5,0,0,1,3.07-.53,7.7,7.7,0,0,1,5.75,2.32q2.27,2.32,2.27,6.67a11.86,11.86,0,0,1-1,5.11,7.33,7.33,0,0,1-2.87,3.3,7.82,7.82,0,0,1-4.07,1.09,8,8,0,0,1-3.51-.77,9,9,0,0,1-2.61-2.25v2.62H142.8Zm7.3,15.52A4.87,4.87,0,0,0,151,40.7a3,3,0,0,0,2.34,1,2.8,2.8,0,0,0,2.19-1,5.12,5.12,0,0,0,.89-3.39,4.56,4.56,0,0,0-.87-3.08,2.71,2.71,0,0,0-2.1-1,3.14,3.14,0,0,0-2.43,1A4.47,4.47,0,0,0,150.1,37.4Z"/><path d="M167.08,21.87h7.3V46.29h-7.3Z"/><path d="M177.74,37.49a8.56,8.56,0,0,1,2.93-6.67,11.47,11.47,0,0,1,7.93-2.62q5.71,0,8.63,3.08a8.57,8.57,0,0,1,2.34,6.11,8.58,8.58,0,0,1-2.91,6.69q-2.91,2.61-8,2.61a11.86,11.86,0,0,1-7.41-2.17A8.46,8.46,0,0,1,177.74,37.49Zm7.3,0a5.07,5.07,0,0,0,1,3.5,3.54,3.54,0,0,0,5.17,0,5.24,5.24,0,0,0,1-3.58,5,5,0,0,0-1-3.42,3.27,3.27,0,0,0-2.52-1.12A3.4,3.4,0,0,0,186.08,34,5,5,0,0,0,185,37.48Z"/><path d="M62.74,38.69c-.23,1.73-.9,2.89-2.21,2.89-1.68,0-2.31-1.89-2.31-4.46,0-2.1.63-3.82,2.31-3.82,1.39,0,2.06,1.18,2.25,2.78h8.8c-.44-5.22-4.29-7.85-11-7.85-7.22,0-11.06,3-11.06,8.89,0,6.09,3.83,9.53,11.06,9.53,6.54,0,10.36-2.86,11-8Z"/><path d="M8.45,35.89c-.1-1.39.34-3.48,2.33-3.48s2.16,2.13,2.16,3.48ZM20.4,39.61v-1c0-6-2.43-10.21-9.34-10.21C3.83,28.35,0,31.33,0,37.25c0,6.09,3.83,9.53,11.06,9.53a27.6,27.6,0,0,0,8-1V41.2a13.42,13.42,0,0,1-5.85,1.11c-2.53,0-4.62-.51-4.76-2.7Z"/><path d="M92.69,28.76V24.7l8.62-2.6v6.66h3.9v5.07h-3.9v5c0,1.49.75,2.3,1.88,2.3a6.16,6.16,0,0,0,2-.3v5.07a21,21,0,0,1-5.92.91c-4.45,0-6.6-2.2-6.6-6.86V33.83h-3V28.76Z"/><path d="M117.6,35.89c-.1-1.39.34-3.48,2.33-3.48s2.16,2.13,2.16,3.48Zm11.94,3.72v-1c0-6-2.43-10.21-9.34-10.21-7.22,0-11.06,3-11.06,8.89,0,6.09,3.83,9.53,11.06,9.53a27.59,27.59,0,0,0,8-1V41.2a13.41,13.41,0,0,1-5.85,1.11c-2.53,0-4.62-.51-4.76-2.7Z"/><rect x="76.57" y="28.76" width="8.62" height="17.61"/><polygon points="76.57 23.63 76.57 26.9 85.19 26.9 85.19 21.04 76.57 23.63"/><path d="M23,24.07h.15l-.08.15c0,.07.16,0,.22.09s.06.29.06.3l.22.16a5.82,5.82,0,0,1,0,.6c-.12.08-.09.08-.16.22h-.15a2.28,2.28,0,0,1,.06.23h.15s0,.05,0,.08h.15l.07.15c.07.05.14,0,.22.09s0,.25-.08.15a2.69,2.69,0,0,0,0,.3c.31.06.07-.11.16-.14s.17,0,.23,0c0,.18,0,.17.06.38h.07c0,.08,0,.21,0,.3h.08s0,.18,0,.22-.05,0-.15-.08,0-.05,0-.08-.32,0-.38,0,0-.25,0-.3h-.07v-.15h-.08v-.15s-.28-.13-.3-.16.06-.23,0-.3c-.58.06.4-.07-.08.07h-.15s0,.05,0,.08-.16,0-.23,0v-.15H23s0,0,0-.07h-.15s0-.3.16-.14c0,0,0-.05,0-.08l-.22-.16v-.08h-.08V25.4l-.15-.08v-.15L22.36,25s0,0,0-.07-.25,0-.38,0a1.88,1.88,0,0,0,0-.3,1.59,1.59,0,0,0,.38,0l.07.15h.15a1.59,1.59,0,0,1,0-.52l.31-.06v-.15Z"/><path d="M22,23.87h.23a1,1,0,0,0,0,.3.58.58,0,0,0-.16.14,2.09,2.09,0,0,0-.23,0,1.29,1.29,0,0,0,0,.3h.08c0,.11,0,.26,0,.37-.13-.06-.26,0-.38,0s-.11-.38,0-.3c0-.09-.14-.15-.14-.16s0-.25-.06-.38c.23,0-.05,0,.07.08.38.15.35-.18.47-.28S22,23.89,22,23.87Z"/><path d="M47.11,25.39c.15,0,.31,0,.45,0v.15c-.1,0-.25,0-.31.06a1.37,1.37,0,0,0-.17.29H47c0,.18-.06,0,.07.08s0,.18,0,.22l-.23.07c-.06.13,0,.31,0,.45-.44,0,.25,0-.08.07a1.45,1.45,0,0,1-.53,0c-.06,0,.2-.28-.29-.24,0,0-.18.32,0,.22,0,0,0,.05,0,.07-.26.07-.29-.14-.53-.1,0,0,0,.05,0,.07h-.15s0,.05,0,.07l-.16.07a7,7,0,0,0,0,1.13,1.24,1.24,0,0,0-.23,0V28h-.08a2.17,2.17,0,0,1,0,.3H45a4.6,4.6,0,0,0,0,.53h.15s0,.05,0,.07.13,0,.22.09a1.12,1.12,0,0,0-.26.66h.08a1.59,1.59,0,0,1,0,.38l-.23.14v.15a1.29,1.29,0,0,0-.23,0c0-.29,0-.37,0-.68H44.6a2,2,0,0,1,0-.6c0-.06.1.09.08-.15h-.07a2.23,2.23,0,0,1-.06-.3,1.36,1.36,0,0,1-.23,0c0,.15,0,0-.08.07a7.52,7.52,0,0,0,0,1c-.07,0-.14,0-.16.14l.22.09s0,.05,0,.07h.15s0,.2,0,.22h-.15s0,.05,0,.07-.25-.06-.38,0c-1.17.33,1.19-.14-.08.07,0,.13,0,0-.08.07l.06.23h.07l-.09.22a1,1,0,0,0-.3,0s0,.24,0,.3l.3.09s.12.22.14.23.14,0,.22.09a1.17,1.17,0,0,0,0,.3.61.61,0,0,0-.16.07c0,.13,0,.32,0,.45h-.08s0,.06,0,.08h-.15c0-.11,0-.21-.06-.23s-.12.12-.23.06c-.06.17,0,.13-.09.3h-.08c0,.17.07.25.06.31.14,0,.11-.06.15.08h.15s0,.05,0,.08h-.08c-.1.24.08.26-.17.37,0,0,0,.05,0,.08h-.15v.08a1.85,1.85,0,0,1-.23.06s0,.05,0,.08h-.08c-.06.13,0,.31,0,.45l-.23.07c.05.16,0,.21.06.38h.08c0,.15,0,.11.06.23-.1-.06-.29,0-.38,0a1.2,1.2,0,0,1,0-.3h-.15s0,0,0-.07-.07.13-.16.07v.15l-.24.14v.15s.18,0,.14.23l-.24.14a4.56,4.56,0,0,0-.1.52H41.7v.07c0,.15.19.1.14.31h-.08v.15h-.08s0,.05,0,.08-.18.15-.32.21,0,0,0,.07h-.08c-.05.06,0,.22,0,.3H41.1c-.09.15,0,.14-.16.22,0,0,0,.05,0,.08-.15.05-.37-.05-.53,0,0,0,0,.05,0,.08h-.23s-.09.22-.09.22h.08v.07c.17,0,.16-.07.16-.07.19,0,.11.08.3.09,0,0,0,.22,0,.23h-.08s0,.22,0,.23c.06-.24.05.38.05.38h-.08l-.33.43H40s0,.05,0,.08-.27,0-.38.06V39h-.15a1.54,1.54,0,0,1-.08.15h-.15v.15a.74.74,0,0,0,.23,0c0,.16-.06,0,.07.08v.15h.07c0,.07-.05.23,0,.3s.2,0,.23,0,0,.05,0,.08h.08s0,.19,0,.22h.08v.22c.13.07,0-.1.07.08a1.67,1.67,0,0,1,.45,0s.06.13.14.16c0,.18-.06.34,0,.52,0,0,.14.06.15.08s0,.3.05.45a1,1,0,0,1,.23,0,.64.64,0,0,1,.08-.15c.09,0,.14,0,.23,0v.15a.9.9,0,0,1,.15.08c0,.18.42.6.42.62s.17,0,.22.09v.15h.08c0,.1,0,.18.06.23h.15V43a1.34,1.34,0,0,0,.3,0l.07.16h.08c.09.15,0,.34,0,.52l.22.16c0,.07,0,.19.06.23s.27,0,.38,0l.07.15h.15s0,0,0,.07h.08c0,.05,0,.19,0,.23l-.38,0c.13-.1-.15-.08-.15-.08s0,.29,0,.3a.74.74,0,0,1,.14.16s.18,0,.23,0,.3-.17.39-.13l.07.15a.8.8,0,0,0,.23,0v.08h.08a1.2,1.2,0,0,1,0,.37h.08a1.17,1.17,0,0,1,0,.3c.27,0-.09,0,.07.08s.32-.14.53,0-.18.08.07.08V46l-.23.06v.15a2.09,2.09,0,0,1,.45,0,2.53,2.53,0,0,0,0,.52.91.91,0,0,1,.33.2l.06.23s.13,0,.15.08,0,.3.05.45l.29.24a.61.61,0,0,0,0,.08h.07l.06.3c.06.06.18,0,.22.09s0,.29.06.38h.15c.05,0,0,.13.06.23h.08v.15H47a1.1,1.1,0,0,1,.07.15h.07c0,.06,0,.17,0,.22h.07c0,.15,0,.27.06.38l.22.16a.72.72,0,0,0,0,.07h.08c0,.06,0,.16,0,.23h.08c0,.15,0,.27.05.38h.15v.08c.12.06.1.09.22.16s0,.05,0,.07h.08l.06.3s.21,0,.22.09a1,1,0,0,1,0,.23h-.08a1.13,1.13,0,0,0,0,.53h.08c0,.13-.06.24,0,.38h.08a1,1,0,0,0,.06.23h.07c0,.08,0,.22,0,.3h.08a1.8,1.8,0,0,1,0,.53s-.2,0-.23,0a3.19,3.19,0,0,1-.25.36s-.25,0-.31.06l-.08.15h-.08v.15c-.07,0-.32,0-.38.06s0,.33,0,.37-.32,0-.38.05l-.09.22h-.15l-.24.29h-.15s0,.05,0,.07-.22,0-.3,0a1.92,1.92,0,0,0,.09-.22c.15,0,.31-.37-.06-.3,0,0,0,.05,0,.07h-.15s0,.05,0,.07-.13.17-.16.22a1.35,1.35,0,0,0,.3.16s0,.24-.08.15v.15h-.15s0,.05,0,.08-.16,0-.23,0-.06.14-.08.15a1.82,1.82,0,0,1-.45,0c.24.11-.25.05-.31.06s0,0,0-.07c-.17-.1,0-.26-.06-.3h.08a2.1,2.1,0,0,0,.09-.22s-.2,0-.23,0a1.61,1.61,0,0,0,0,.37,1.12,1.12,0,0,0-.38,0,.88.88,0,0,0-.07-.16c-.08,0-.22,0-.3,0a1.26,1.26,0,0,0,0-.38c.13,0,.14-.14.16-.14.22,0,.17.15.22.16s0-.13.15-.06c.07-.18,0-.17.1-.37h.08c-.07-.07-.06-.25-.14-.31s-.2,0-.22-.09v-.15c-.05,0-.27,0-.3,0s0-.23,0-.3h-.07v-.15h-.08c0-.09,0-.21,0-.3h.08v-.15c.15-.06.22.07.3.09,0-.15,0-.24.09-.29,0,.13,0,0,.07.08a.81.81,0,0,1,0-.22c-.19,0-.42,0-.61,0v-.08c-.09,0-.14,0-.23,0s0-.2-.22-.16a2.86,2.86,0,0,0,0,.3c-.22-.08,0,0-.08.07H43c0-.07,0-.16,0-.23h.08v-.15h.08s0-.55-.06-.23c-.11-.07.14-.14-.07-.08,0,0,0-.18,0-.22s.1.09.08-.15c.29,0,0-.24.31-.13V52h.08c0,.08,0,.21,0,.3h-.07s0,.17,0,.22.14,0,.23,0l.14.23c.05,0,.2,0,.23-.06s-.09-.1.08-.15c-.08,0,.07-.23.09-.29l-.38.06a2.56,2.56,0,0,1,0-.53c-.08,0-.22,0-.3,0s0,0,0-.07h-.15a3.79,3.79,0,0,0-.72-.64v.15s-.05.34-.1.52h-.08v.15h-.15c0-.16,0-.07-.07-.16.06-.28.06-.46.11-.74-.52-.12-.42-.42-.42-.62h-.15v.08c-.1,0-.18,0-.23.06s0,.27-.09.3-.32-.05-.46,0c0-.28.23-.53,0-.68,0,0,0,0,0-.07l-.15-.08v-.15c.25,0,.21-.12.38-.06s-.18.08.07.08a1.19,1.19,0,0,0,0,.37h.07a1.1,1.1,0,0,1,0-.23h.15l.08-.15h.08v-.15h-.15s0,0,0-.07-.28,0-.38,0,0,0,0-.08,0-.08-.06-.23h-.15s0,0,0-.07-.29,0-.38,0,0-.2,0-.23h-.15a.74.74,0,0,1-.07-.15H40.2s0-.14-.07-.15,0-.28.09-.29.08.1.37.09a1.93,1.93,0,0,1,.05.45,1.78,1.78,0,0,1,.23,0s0,.05,0,.07H41s0-.05,0-.08h.15a1.18,1.18,0,0,1,0-.37.72.72,0,0,0,.23,0c.18.84,0,.38,0,.52.17,0,.22.11.3.09s0,0,0-.07h.08c0-.15,0-.3,0-.45h-.07c0-.15,0-.31,0-.45H41.6V48c-.13,0-.12-.15-.14-.16s-.14,0-.23,0,0,.14-.12.11l-.21-.31a1.33,1.33,0,0,0-.46,0v-.08h-.08a1.26,1.26,0,0,0,0-.3l-.15-.08c-.16.21.16,0-.08.07a1.15,1.15,0,0,1,0,.22s-.21,0-.23.06,0,.22,0,.3h-.15c-.08-.17.09,0-.07-.08a.75.75,0,0,0,0-.23.61.61,0,0,1-.14-.16h-.08c0-.29.25-.48.34-.66h.08c0-.17,0-.35,0-.52h.15V46h.07s0,.05,0,.07c.17.1,0,.19.06.38h.08s0,.05,0,.08a3.51,3.51,0,0,1,.53,0v-.15c0-.06.17,0,.23-.06v-.15h.07c0-.32,0-.37,0-.68.07,0,.14,0,.16-.14l.3.09c-.13.09.14.08.15.08s0-.14.16-.22c0,0,0-.05,0-.08s-.14-.16-.14-.16a1.44,1.44,0,0,0-.38,0s0,0,0,.08-.22,0-.3,0,0,.31,0,.45h-.08v.15h-.08v.15h-.08c-.06.25.08.29.05.45,0,0-.08,0-.08.15h-.23c0-.15.06-.08-.07-.15,0-.25.12-.44,0-.6l-.22-.16a1.5,1.5,0,0,1,0-.3h.15a2,2,0,0,0,0-.45h-.08s0-.05,0-.08.07-.29.09-.3c-.27,0,.09,0-.07-.08a.92.92,0,0,0-.31,0s0,.05,0,.07h-.3s0-.05,0-.08a2.26,2.26,0,0,0-.3,0s0,.05,0,.07h-.15s0,0,0,.07-.19.11-.38.06a1.47,1.47,0,0,1,0-.23c-.12-.06-.27,0-.37-.09s-.21-.31-.21-.31H38.3c0-.07.15-.13.16-.14s0-.14,0-.22h.07s0-.24-.07-.15.08-.16-.07-.08c0,0,0-.05,0-.07s-.14,0-.23,0v-.07h-.08s.14-.27.09-.3-.28,0-.38,0c.05.13,0,.17.06.3s.14.06.15.08,0,.21,0,.3l-.23.06c0-.07.07-.19-.07-.15a3.91,3.91,0,0,0,0-.53c.06,0,.1.06.08-.07s-.12,0-.22-.09a1.12,1.12,0,0,0,0-.3,5.39,5.39,0,0,0,.61,0c-.06,0,0-.18-.06-.23s-.38-.06-.53-.1,0-.05,0-.08-.17-.13-.38-.09v.07H37c0,.16-.07.23.06.3v.08c.11,0,.27,0,.3.09s0,.21,0,.23l-.24.14s0,.05,0,.07h-.08l-.09.3h-.15c-.08.11,0,.26-.1.37s-.18,0-.23,0,0-.11-.15-.08,0,.05,0,.08a1.16,1.16,0,0,1,.22.09c-.09.14-.07.28-.25.36v.07c-.08,0-.14,0-.23,0v.07H36s0,.05,0,.07,0,.28.05.45l-.23.06c0,.06.12.13.06.3l-.24.14c0,.06,0,.17,0,.23s-.13,0-.16.07v.15h-.15s0,.05,0,.07-.11.08-.24.14,0,.05,0,.08h-.15s0,.05,0,.08c-.21.08-.27.26-.48.35,0,0,0,.05,0,.08h-.15a.72.72,0,0,0-.08.15h-.07c-.06.11,0,.06.07.08s0,.21,0,.3h-.08v.15H34s0,.21,0,.22-.24,0-.3,0v.08h-.15l-.08.14H33.4v.15h-.08c-.07.21.14.33,0,.6,0,0-.29.11-.31.13s-.05.23-.1.37h-.08c0,.08,0,.23,0,.3s-.18,0-.23.06-.06.25-.09.37h-.15l-.08.15c-.15,0-.31-.07-.45,0-.63.18.65,0-.08.07,0,0,0,.05,0,.07a.74.74,0,0,1,.15.08s-.14.33-.1.37c-.17.08-.1,0-.24.14-.17-.05-.18-.11-.37-.1,0,0,0,.05,0,.08s-.06.09.07.08.06.22-.24.14c0,0,0-.08-.15-.08a1,1,0,0,1,0,.3,1.11,1.11,0,0,1,.23,0s0,.24,0,.3h-.15s-.07.12-.08.14H30.7s0,.05,0,.08h-.15s0,.05,0,.08c-.24.1-.07.09-.17.29H30.3s.11.12.06.23l-.24.14V52H30c0,.05,0,.18,0,.22h-.15s0,.05,0,.07-.17.14-.31.21,0,.05,0,.08h-.08s-.06.25-.09.3l-.24.14v.15c-.11,0-.27-.06-.38,0L28.7,53h-.08c0-.09,0-.22,0-.3-.26,0-.19.12-.23.13h-.15l-.07-.15H28a.72.72,0,0,1-.07-.15h-.08l-.07-.16c-.18-.09-.41,0-.6-.11L27.08,52s-.18,0-.23,0a.87.87,0,0,0-.07-.15c-.08,0-.23,0-.3,0l-.07-.15a2,2,0,0,0-.22-.09,1.23,1.23,0,0,1-.05-.38l.23-.07c.08-.13,0-.3.1-.44,0,0-.12-.07-.15-.08v.15l-.24.14v.15H26s-.12-.22-.14-.23H25.7l-.07-.15h-.15l-.14-.23h-.15v-.15h-.08s-.11-.21-.14-.23L24.76,50c0-.05,0-.19,0-.22s-.17,0-.23,0l-.14-.23h-.08c-.06-.15,0-.31-.05-.45a1.28,1.28,0,0,0-.23,0c0-.08,0-.23-.06-.3l-.15-.08V48.5l-.15-.08v-.15h-.07L23.5,48h-.08v-.15l-.15-.08c0-.13.05-.24,0-.37.32,0-.16,0,.08-.07s.12.07.3.09c0-.13,0,0-.07-.08a2.16,2.16,0,0,0,0-.3h.15a1.59,1.59,0,0,0,0-.23c.12,0,.06-.09.23-.06,0,0,0,.05,0,.08a1.06,1.06,0,0,0,.23,0c.31-.09-.34-.08.08-.07,0-.09,0-.14,0-.22s-.12-.07-.15-.08a1,1,0,0,0,0-.23,1.11,1.11,0,0,0,.3,0c0,.1,0,.18.14.23s0,.05,0,.08h.15c.38-.11-.39,0,.08-.07a3,3,0,0,1,0-.3c.3-.06.07.12.14.16.23.1.45,0,.61,0a.54.54,0,0,0-.14-.16s0-.18,0-.22h-.08c0-.11.06-.27,0-.37H25.3a1.3,1.3,0,0,1-.07-.23h-.07c0-.2.1-.32.1-.37a.85.85,0,0,0,.23,0v.15c.1,0,.27,0,.38,0l.14.23c.07,0,.16,0,.22.09s0,.14,0,.22l.06.3s0,.05,0,.07c.17,0,.11-.1.23-.06v.15h-.08v.15h-.07v.15h-.15s0,.05,0,.08l-.23.14c0,.07,0,.16,0,.23H26V47h.07c0,.07,0,.15,0,.22s.25,0,.38-.06v-.15c-.2.09-.18-.11,0-.15,0,0,0,0,0-.07.19,0,0,.16.15.08,0,0,0,0,0-.07h.3s0,.05,0,.07.08.2,0,.15l-.08.15h-.08v.15a1.09,1.09,0,0,1,.23,0c0-.16,0,0,.08-.07v-.15s.09-.47,0-.23a.65.65,0,0,0,0-.22l-.22-.16c0-.14,0-.31,0-.45.06,0,.13-.11.31-.06,0,0-.18.22,0,.15,0,0,0,.05,0,.08a.79.79,0,0,1,.23,0v-.15c-.1,0-.25-.24,0-.15-.09,0,.11-.08.15-.07s0,.05,0,.08l.3.09c0-.17,0-.37,0-.53s-.12.21-.07-.08h.08s-.27-.32.16-.14h.15s0,.05,0,.07c.2,0,.11-.1.31-.06,0,0,0,.05,0,.08l.07.15h.15a1.21,1.21,0,0,1,0-.3c.09-.06.19,0,.31-.06a.76.76,0,0,1,.16-.14s0-.21,0-.22h.08V45h.08c.05.24-.07.35-.1.52h.07v.15s.11-.11.16-.07c.09-.14.12,0,.16-.07a.79.79,0,0,0,0-.23.92.92,0,0,0,.15-.07c0,.18-.06,0,.07.08s0,.22,0,.23c.43.05.14-.11.23-.14a1,1,0,0,1,.3,0l.09-.22c-.17-.05-.19,0-.3-.09a.91.91,0,0,0,0-.23,1.3,1.3,0,0,0,.38,0v.15c.15.08,0-.1.07.08h.15c0,.15-.08.15-.08.15s0,.32,0,.37a1.29,1.29,0,0,0,.3,0c0,.15,0,.07.07.15v-.07a1.48,1.48,0,0,0,.16-.07,1.19,1.19,0,0,1-.06-.38v-.07l-.15-.08V45A1.06,1.06,0,0,0,30.8,45s0,0,0-.07l-.15-.08v-.15c.07,0,.16-.14.16-.14a1.37,1.37,0,0,1,.38,0c0-.17,0-.35,0-.52s0,.07.08-.07a2.25,2.25,0,0,1,.46-.05c0-.14-.06-.1.08-.14v-.08c.17,0,.25.11.3.09s0,0,.08-.07a2.74,2.74,0,0,1,0-.6h.08a1.81,1.81,0,0,1,.09-.3h.07c.05-.16,0-.36,0-.52h.07s0-.18,0-.23l-.22-.16c0-.09,0-.14,0-.22a2.17,2.17,0,0,1,.24-.14v-.07c.09,0,.14.05.23,0-.22-.06.08-.07.08-.07,0,.17-.06,0,.07.08a.71.71,0,0,0,0,.23c-.17,0-.25.25.07.15a.92.92,0,0,0,.08-.15h.08v-.15c.11-.06.33,0,.46-.05a3.71,3.71,0,0,1,0-.52h-.07s0,.05,0,.07a2.06,2.06,0,0,1-.3,0s0,0,0-.08,0-.08.09-.22.21,0,.3,0,0-.05,0-.08a1.33,1.33,0,0,1,.38,0c.19.07-.23.07.07.08-.06.24-.07.34-.11.59l.22.16a2.11,2.11,0,0,1,.42-.65s0,0,0-.08h.08c0-.06,0-.29,0-.37s0,0,.08-.15a.94.94,0,0,0,.3,0v-.15l.16-.07-.06-.23c-.05,0-.17,0-.23,0v.07H35v.15l-.15.07s0,.05,0,.08h-.07v.15h-.15s0,.05,0,.08a1,1,0,0,0-.24.14c0-.07,0-.16-.06-.23l-.22-.16s0,0,0-.08-.16,0-.23,0,0-.22,0-.23.39.1.46-.05a.83.83,0,0,0,0-.67H34.3c0-.09,0-.21,0-.3h-.08c0-.18.07-.36,0-.52h-.08a1.62,1.62,0,0,1-.14-.23h.15l.08-.15c-.17,0-.37-.07-.53,0l-.16.22h-.07a1.1,1.1,0,0,1,0,.3c.09,0,.19.06.22.16h-.15s0,.05,0,.07-.16,0-.23,0c0-.16,0,0-.07-.08l.09-.29c-.35-.06.17,0-.15-.08-.09.12-.07-.16-.07-.16h.08l.16-.22h.15c.05-.1.41-.3-.05-.45-.09,0-.22,0-.3,0s0-.1-.15-.08l-.16.22h-.22c0-.14,0,0-.08-.08a2,2,0,0,1,0-.52,2,2,0,0,1,.23,0s0,0,0-.08h.08s.08-.27.09-.29h.08v-.15c-.14,0,0-.14-.22-.09v.15h-.23v.07l-.22-.09a2.77,2.77,0,0,1,0-.3h-.08c.09-.26-.07-.24.17-.37v-.15s-.11,0-.07-.15c-.1,0-.07-.09-.22-.09,0,0,0,.05,0,.08s-.14,0-.23,0l-.08.15h-.07l-.08.14c-.08,0-.22,0-.3,0s0,.05,0,.07h-.15v.15h-.15c0-.08,0-.22,0-.3h.08v-.15h.08s0-.18,0-.23h-.08c0-.15,0-.3,0-.45h-.08s0-.05,0-.08-.28,0-.38,0v-.15c0-.05-.17,0-.22-.09v-.15c-.32-.1,0,0-.15-.08s-.36,0-.53-.1c0,0,0-.05,0-.08l-.22-.09v-.15l-.22-.16v-.15s-.2,0-.22-.09.06-.25,0-.37h.15v-.15h.08c0-.06,0-.17,0-.23a4.55,4.55,0,0,0-.84,0c-.2,0-.11-.11-.37-.1,0,.07-.2.13-.09.22s.2.07.22.09v.15c.1,0,.12.23-.08.15v-.08h-.15l-.14-.23c-.05-.05-.09,0-.15-.09v-.15s.21,0,.08-.07l-.22-.09-.06-.3H27.6c-.07-.18,0-.26,0-.52-.12.08-.05-.32-.06-.38a.89.89,0,0,0,.23,0v.15h.08c0,.1,0,.1.06.23H28a.78.78,0,0,1,0,.22c.17.1,0-.12.07.08h.15l.08-.15c.27-.06.36.12.52.18,0,0,0,.05,0,.08H29c0-.05,0-.11.08-.15l.16-.07v-.15h.07c0-.06,0-.17,0-.22l.16-.07s0,0,0-.08h.15c.06-.07,0-.23.09-.3-.15-.11,0,0-.06-.23s-.09,0-.15-.08h-.08a3.25,3.25,0,0,1-.1.37.91.91,0,0,1-.3,0,2.36,2.36,0,0,1-.16.22h-.08s0,.29.07.15-.06.17.07.08v.15c-.06,0-.1-.06-.08.07a1.1,1.1,0,0,0-.3,0c0-.2,0-.4,0-.6-1.25-.34-.43-.21-1-.27,0-.26,0-.47,0-.68l.24-.14v-.15a2.8,2.8,0,0,1-.37-.17V29.7c-.06,0-.18,0-.23.06l-.08.15H27c-.06.07,0,.28-.1.37a1.5,1.5,0,0,0-.23,0s0,0,0-.07h-.08c0-.17,0-.36,0-.52l.23-.14s0-.12.08-.15-.11-.12-.15-.08a.74.74,0,0,1-.07-.15h-.07V29h-.08c-.13-.19-.06-.27-.28-.39,0,0,0-.05,0-.07s-.23,0-.3,0,0,.13-.16.14a1.44,1.44,0,0,1,0,.38,4.75,4.75,0,0,0-.61,0c0-.08,0-.14,0-.23l.23-.14c0-.08,0-.15,0-.23.2.07,0-.23,0-.23a.88.88,0,0,0-.23,0v.07c-.22,0-.2-.1-.3-.09s0,.05,0,.07h-.15s0,.05,0,.08h-.3c0-.12.08-.14-.07-.15a3,3,0,0,1,0-.75l.16-.07a3.21,3.21,0,0,1,.39-.13s0,.05,0,.07.22,0,.3,0c.1-.22.23-.46.34-.66h.15c.05,0-.1.37-.1.37h.08c0,.11,0,.16.06.23l.15.08c0,.17-.27.67,0,.6v-.15h.15c0-.1.15-.11.16-.14.07-.18,0-.42,0-.6,0,0,.1.06.08-.14,0,0-.08,0-.07-.15l.16-.07c0,.15-.05,0,.07.08a1.49,1.49,0,0,0,0,.22h.08a2.59,2.59,0,0,1,0,.3h-.08c0,.13,0,.24,0,.38h-.07c0,.18.07.12.06.3.2,0,.13-.06.16-.07s.25,0,.38,0a.54.54,0,0,0,0,.08.79.79,0,0,1,.23,0c.06,0,0,.18.06.23s.11,0,.22.09,0,.05,0,.07h.15l.07.16c.09,0,.1-.11.31-.06,0,.15-.07.17.06.23a2.11,2.11,0,0,0,0,.3c-.09,0-.07-.07-.08.07v.07c.09,0,.21,0,.3,0s0-.05,0-.08a1.52,1.52,0,0,1,.45,0c.16.06-.19.08.07.08,0,0,.06-.12.16-.07v.15l.22.16s0,.05,0,.07h.07c.08.12,0,.13.14.23,0,0,0,.05,0,.07s.27,0,.38,0c-.06.26-.05.38-.11.67l.22.09.07.15h.08s0,0,0-.07.15,0,.23,0l.16-.22s.09.1.15.08c0,.16,0,.2.06.3a1.17,1.17,0,0,1,.23,0c-.17.07.07.08.07.08v.15c-.17,0-.11.09-.23.06s0-.16-.14-.16v.15h-.08c0,.08,0,.22,0,.3a1.41,1.41,0,0,1,.84,0l.14.23h.15a1.12,1.12,0,0,0,0,.3c.09.08.23,0,.37.1l.07.15a.74.74,0,0,0,.23,0s0,.05,0,.07.18,0,.23,0,0,.05,0,.07.09.13.14.23h.07c0,.12-.06.26,0,.38l.22.16c0,.07,0,.2.06.23s.23,0,.3,0c.77.54-.66-.33.07.08a2.18,2.18,0,0,0,0,.3l.39-.13v.15h.08s0,.05,0,.08H34L34,34h.08a.72.72,0,0,1,0,.22c.07-.25.06.3.06.3h-.07v.15H34a1.27,1.27,0,0,1-.09.22c.45,0-.27-.06.07.08a1.62,1.62,0,0,0,.3,0s0-.05,0-.07,0,.1.22.09a.11.11,0,0,1,.15-.07c.27.11-.31.05.07.08,0,.17.07.24.06.3l-.16.07c0,.06,0,.16,0,.22h-.07a2.17,2.17,0,0,1,0,.22h-.08c0,.08,0,.21,0,.3s.09-.06.07.08a1,1,0,0,1,.3,0c0-.1,0-.06.08-.15-.14-.05,0,0-.07-.15-.08.12-.06-.23-.06-.23h.07l.08-.15h.15s0-.12.08-.15.18,0,.23,0,.07.15.07.15c0,.2-.16.18-.16.22s.06.34.06.38.14,0,.23,0l.14.23c.12,0,0-.12.23-.06a1,1,0,0,1,.07.15,2.23,2.23,0,0,1,.45,0,1.61,1.61,0,0,1,0-.37h.08v.08a1.91,1.91,0,0,1,.3,0v-.15c-.19-.11-.07-.08-.07-.08-.35,0,.17,0-.07-.08s-.18.06-.16.06h-.08l-.06-.23c.19,0,.16,0,.38-.06v-.07c.11,0,.29.07.38,0l-.06-.3.23-.06c0,.11,0,.26,0,.38h-.08a2.13,2.13,0,0,0,0,.52h.07v.15h-.08c0,.15,0,.46,0,.53-.15.06-.11,0-.31.06,0,0,0,.05,0,.08h-.15c-.15.11.13,0-.08.15,0,0,0,.23.06.3a1.56,1.56,0,0,1,.23,0v-.15c.2,0,.25.15.38.09l.09-.29s.17,0,.23,0V37c.14-.05,0,0,.08-.15H38v-.07a4.52,4.52,0,0,1,.53,0v.15a1,1,0,0,1-.3,0c0,.2-.13.13-.1.37h.08v.15c.11.06.05-.09.07.08a.92.92,0,0,1,.3,0s-.07.27,0,.3-.25,0-.3,0-.12.27-.17.29c.75.18-.58-.18.07.08.08,0,.23,0,.3,0,.08-.17.07-.06.24-.14a1.17,1.17,0,0,1,0-.37c.15.07,0,0,.08-.07h.07a2.79,2.79,0,0,0-.29-.16l-.06-.3c.15,0,0,0,.08-.15.75.18-.58-.18.07.08a1.23,1.23,0,0,0,.3,0c0-.09.08-.25-.06-.23a1.42,1.42,0,0,1,0-.23c-.13-.08,0,.1-.07-.08h-.07c-.07-.07.07-.21.08-.15s0-.2.08-.15c0-.12-.1-.11-.06-.3h-.15c0,.06,0,.21-.08.15s0,.14,0,.23l-.23.14s0,.19,0,.23l-.9-.2a4.47,4.47,0,0,1,0-.52c-.14,0-.06-.15-.06-.23s.22,0,.3,0-.14.12.07.08c0-.08,0-.14,0-.22l-.22-.09s0-.18,0-.22l-.15-.09v-.07h.15s0-.05,0-.07c.2,0,.26.07.37.09v.15s.17,0,.22.09.06-.2.16-.22c.05-.28.06-.45.12-.75h-.08s0,0,0-.07l-.38.06s0,.05,0,.08c-.19,0-.31,0-.46,0s0,.16-.09.22-.11,0-.15.07v.07h-.15s0,.05,0,.07H37l-.08.15h-.15v.15h-.15s0,.05,0,.08h-.08s.5.41-.61.12a1.17,1.17,0,0,0,0-.37l.23-.07s0,0,0-.08.16,0,.23,0a.48.48,0,0,1,.16-.14V34.6c.17-.07.45.09.61,0s.05-.13.09-.22h.08v-.15c.06,0,.22,0,.3,0V34.2c.1,0,0,0,.15-.07-.07,0,.1-.15-.07-.08,0-.15,0,0-.07-.08a1.61,1.61,0,0,0,0-.38s.17,0,.23,0,0,.26.06.31c.28,0,.38,0,.69,0,0,0,0,0,0-.07.22,0,.18.09.37.09l.09-.22c.12-.06.26,0,.38-.06v-.15a1,1,0,0,1,.23-.06s0-.05,0-.07c.19-.06,0,0,.07.08s.26,0,.38-.06,0,0,0-.07.16,0,.23,0,.09.16.22.24,0,.05,0,.08.39-.5.17-.37v-.15L41,33a.34.34,0,0,1,0,.07,1.61,1.61,0,0,0,.3.09,1.93,1.93,0,0,1,0-.45c-.1-.06-.06.06-.07-.08-.14.07,0-.07-.07-.08H41v.15a1.32,1.32,0,0,1-.16.07v.15c-.06,0-.2,0-.23.06s0,.15,0,.23-.12-.11-.15-.08a3.64,3.64,0,0,1,.1-.52c-.11-.07-.05.08-.07-.08V32.4s.12,0,.16-.07.15-.21.16-.22h.08a2.14,2.14,0,0,0,0-.22h-.08c0-.13,0-.24,0-.37.07,0,.16,0,.23,0s0,.05,0,.08h.15s0,.05,0,.07a1.74,1.74,0,0,0,.61,0L42,31.5h.15s0-.18,0-.22h-.08a1.6,1.6,0,0,1,0-.3c-.13-.07,0,.1-.07-.08-.07,0-.23-.05-.3,0s0,.21,0,.22,0-.1-.08.07c-.09,0-.14,0-.23,0a.78.78,0,0,1-.07-.15,5.07,5.07,0,0,0-.61,0s-.06.14-.08.15-.22,0-.3,0V31h.08a2,2,0,0,1,.09-.3,1.56,1.56,0,0,0,.23,0v-.15a.63.63,0,0,1,.16-.07s0-.05,0-.07.25.06.3,0-.07-.08-.07-.08v-.15h.07l.24-.29c.09,0,.14,0,.23,0s0,.23.3.16l.09-.22h.15s0-.05,0-.07h.15a3.33,3.33,0,0,0,.11-.59l-.15-.08c.06-.08,0-.14.09-.22l.23-.14v-.15c-.09,0-.12.11-.31.06,0,0,0,0,0-.07h-.15v-.07c.13-.05.25,0,.38-.06l.08-.15.23-.06v-.07c.14,0,.31,0,.45,0,0,0,0-.25-.06-.3l-.15-.08L43,28.1h-.15a10.16,10.16,0,0,0,.09-1.65h.15a.91.91,0,0,1,.07.15h.08s0,.18,0,.22h.08c-.09,0,.07.15.07.15s0,.21,0,.3a.74.74,0,0,0-.16.07,3.07,3.07,0,0,1,0,.37c.07,0,.09-.05.07.08h.08a1,1,0,0,1,0-.22h.15s0,0,0-.07.2,0,.23-.06,0-.27.09-.37l.24-.14s.07-.63-.06-.3c0-.17,0-.39.1-.44s0,0,0-.08h.15v.15l.22.16v.07c.08,0,.22,0,.3,0s0-.11.09-.22H45v-.07c.23-.06,0,0,.07.08s.06-.1.23-.06a.12.12,0,0,0,.15.08l.08-.15h.15v-.07h.07v-.07c.28,0-.1,0,.07.08s.14,0,.23,0c.31.12-.33,0,.07.08,0-.16,0,0,.08-.07,0-.21,0-.4,0-.6,0,0,.14.11.15.08s-.07.22.07.15v-.22l.23-.06s0-.05,0-.07.22,0,.3,0S46.79,25.4,47.11,25.39Z"/><path d="M43,51.7c0,.13,0,0,.07.08a4,4,0,0,0-.1.52h-.08s0-.05,0-.08c-.29-.1-.11-.22-.21-.39h.15a1.14,1.14,0,0,0,.08-.15Z"/><path d="M23.19,46.74,23.1,47c-.15,0-.23,0-.07-.08V46.8Z"/><path d="M22.48,45.65l.07.16a3.1,3.1,0,0,1,.3.09V46a.74.74,0,0,1,.23,0l.09-.22a1.27,1.27,0,0,0,.23,0,1.42,1.42,0,0,0,0,.37c.17.13.14,0,.31-.06v.15h-.08s0,.05,0,.08h-.15c-.05.15.06.09-.08.15s0,.05,0,.07-.15-.08-.15-.08-.34,0-.45,0,0-.24-.06-.3l-.22-.09v-.15a1.18,1.18,0,0,1-.15-.08v-.15h.08C22.56,45.65,22.24,45.59,22.48,45.65Z"/><path d="M23.66,45s0,.05,0,.08a1.19,1.19,0,0,1,.22.09v.15c-.57,0,.39-.07-.08.07h-.15s0,0,0,.07c-.24,0-.14-.16-.14-.16-.19-.07-.27.19-.31.21s-.14-.05-.23,0,0-.3,0-.3c.14,0,.31.06.45,0V45.1C23.55,45,23.53,45,23.66,45Z"/><path d="M38.52,45.58c.2,0,0,.22,0,.22C38.25,45.87,38.34,45.61,38.52,45.58Z"/><path d="M24.73,44.79c.25-.08.22.16.22.16-.16,0-.09,0-.16.07s-.13.07,0,.15,0,.05,0,.07H25c0,.08,0,.22,0,.3s0,0,.07.08a2.46,2.46,0,0,0,0,.3c-.19-.06-.33,0-.53-.1,0,0,0-.05,0-.08h-.15s0,0,0-.08-.22,0-.3,0,.05-.3.1-.52c.12,0,.14,0,.23-.06a1.31,1.31,0,0,1,.08-.15h.15C24.74,44.87,24.57,44.84,24.73,44.79Z"/><path d="M26.18,44.71h.15s0,.05,0,.08l.15.08-.09.22a2,2,0,0,0-.46,0,2,2,0,0,0,0-.23Z"/><path d="M29.31,44.5c.34-.07.29.2,0,.23,0,0,0,.05,0,.07S29.2,44.52,29.31,44.5Z"/><path d="M28.63,44.24a2.92,2.92,0,0,0,.3.09v.15a2,2,0,0,0-.31.06l-.08.15h-.15v.15a1.09,1.09,0,0,1-.15.06,1.39,1.39,0,0,1,0,.3c-.08-.08-.19,0-.23.06a2.46,2.46,0,0,1,0-.6l.24-.14.16-.22C28.46,44.27,28.58,44.28,28.63,44.24Z"/><path d="M29.78,44.15l.3,0c0,.14-.08.09.07.15v.07h.15v.15h-.15c-.12,0,.15.14-.16.07v-.15c-.06,0-.24,0-.3,0s0-.2-.07-.23S29.7,44.14,29.78,44.15Z"/><path d="M39.86,44.6h.23v.07h.15s0,.05,0,.08c.22.14-.07.1-.16.14s0,.05,0,.07h-.15l-.09.3h-.08a1.31,1.31,0,0,0,0,.23h.08v.15h-.08s0,.05,0,.08-.28,0-.38.05-.13-.12-.07-.15.11-.12.16-.22.06-.13.09-.22-.17,0-.23,0,0,.05,0,.07c-.18.07-.17.25-.24.29a2.13,2.13,0,0,0-.31.06c0-.07.07-.41,0-.45,0,.12-.17-.31.1-.44v-.07h.08s0,.37,0,.38c.23,0,.25-.08.39-.13s0-.05,0-.08.25,0,.38-.06S39.72,44.6,39.86,44.6Z"/><path d="M27,43.71h.15a1.68,1.68,0,0,1,0,.23l.22.09s0,.05,0,.07h.15s0,.11-.08.14l-.31.21a1.68,1.68,0,0,0,0,.52c-.11,0-.05-.08-.08.07,0,0-.17,0-.23,0s0-.14-.06-.23c-.1.12-.07-.15-.07-.15s.31-.21.39-.28L27,44.16c-.35,0-.29-.22-.15-.16s0-.05,0-.07v-.15Z"/><path d="M29,43.66s0,.05,0,.08a1.12,1.12,0,0,1,.22.09c-.08.12,0,.12-.16.22v.07c-.1,0-.07-.09-.22-.09v.08h-.15c.05-.07,0-.15,0-.23s.18,0,.23-.06v-.15Z"/><path d="M30.19,43.65c.25,0,.1.07.15.08S29.93,43.64,30.19,43.65Z"/><path d="M28.22,43.39l.15.09a1.71,1.71,0,0,0,0,.37s-.3.16-.23,0c-.4,0,.11,0-.15-.09-.1.12-.07-.15-.07-.15h.15a1.66,1.66,0,0,0,.09-.22Z"/><path d="M29.91,43c.08,0,.13.19,0,.15s0,0,0-.08S29.78,43,29.91,43Z"/><path d="M29.09,42.91s0,.05,0,.07h.07v.15h-.23C29,43,28.92,42.9,29.09,42.91Z"/><path d="M29.33,42.55c.1.06-.08.15-.08.15S29.21,42.48,29.33,42.55Z"/><path d="M31.15,42.57h.15c0,.08-.05.21,0,.3l.22.09v.15c-.13,0-.22.09-.31.06s.23-.07-.07-.08v.08a1.1,1.1,0,0,1-.23,0c-.16-.06.18-.09-.07-.08,0,0,0,.12-.16.07s0,0,0-.07h-.15v-.15c.09-.05.25,0,.31-.06s0-.18.09-.22S31.1,42.61,31.15,42.57Z"/><path d="M31.62,42.3a1.83,1.83,0,0,0,.3.09.94.94,0,0,0,0,.22s-.19,0-.23.07l-.08.15h-.15a2.68,2.68,0,0,0,0-.45Z"/><path d="M29.81,42.2c.19.07.16.52,0,.45,0-.16,0,0-.07-.08a3.27,3.27,0,0,0,0-.37Z"/><path d="M31.44,41.54c.36,0,.35.33.22.23v.08c-.1-.06-.64,0-.29-.24C31.5,41.5,31.19,41.53,31.44,41.54Z"/><path d="M32.75,41.08c.13,0,.22.12.07.08v.15C32.58,41.35,32.54,41.1,32.75,41.08Z"/><path d="M32.16,40.82c.11,0,.08.11.14.16h-.07c0,.14,0,.17-.09.22v.07H32s0,.05,0,.08h-.15s0,.05,0,.07-.16,0-.23,0v.08h-.08v-.08h-.08s-.06-.13-.07-.15a1.18,1.18,0,0,1,.23-.06s0,0,0-.07.23,0,.31-.06S32,40.83,32.16,40.82Z"/><path d="M33.17,40.42c.4,0-.1-.08.15.08s-.11.06-.23.06C33.11,40.48,33,40.41,33.17,40.42Z"/><path d="M32.51,39.86s.17,0,.23,0c.48.23.08.33.05.38s-.35.12-.39.13-.08.19-.09.22l-.15-.09c0-.08,0-.21,0-.3h.08s0-.18,0-.23Z"/><path d="M33.23,39.3c.23,0,.14.12.22.16s-.3.12-.16.14h-.23C33.13,39.43,33,39.33,33.23,39.3Z"/><path d="M33.09,37.57c.07,0,0,.09.06.3H33C33,37.77,33,37.53,33.09,37.57Z"/><path d="M31.89,35.86c.28,0,.25.32.14.23v.08s-.18,0-.23,0v-.07C31.68,36.18,31.72,35.85,31.89,35.86Z"/><path d="M30.87,35.05c-.14.09.07.08.07.08s0,.33-.09.22,0,.05,0,.08a.78.78,0,0,0-.23,0v-.15c.11,0,.11-.13.16-.22Z"/><path d="M39.18,33.08c-.06,0,.14.16.14.16v.15c-.11-.06-.17,0-.23.06s0-.05,0-.07,0-.05,0-.07H39S39.1,33.06,39.18,33.08Z"/><path d="M39.67,32.36c.35,0,.2.15.22.16a1.87,1.87,0,0,0,.45,0c0,.1,0,.21.06.23h-.08v.08c-.07,0-.16,0-.23,0a.57.57,0,0,1,0,.07c-.33,0-.41-.16-.59-.25a.68.68,0,0,0,0-.23h.08C40,32.27,39.21,32.39,39.67,32.36Z"/><path d="M27.21,31.11h.07c0,.24,0,.35,0,.53h.08c0,.06-.07.21-.08.14a.91.91,0,0,0,0,.23h-.15a1.25,1.25,0,0,1-.06-.23H27a3,3,0,0,1-.06-.3c.17-.11,0-.13.09-.29Z"/><path d="M39.73,31.23c.48-.06.21.2.29.24a1.41,1.41,0,0,1-.23.06s0,.05,0,.08h-.15C39.66,31.46,39.59,31.25,39.73,31.23Z"/><path d="M26.17,30.53c.05,0,.09,0,.15.09s.05.14.07.15h.15s0,.05,0,.08.16,0,.23,0a1.66,1.66,0,0,0,0,.37c-.17,0-.37,0-.53,0l-.07-.15A1,1,0,0,0,26,31c.05-.17,0-.24.1-.44Z"/><path d="M44.23,30.94c.62,0-.08.15-.08.15S44.08,30.93,44.23,30.94Z"/><path d="M25.77,29.54c.06,0,.07.25.14.31a.76.76,0,0,0,.23,0s.06.14.07.15c-.3,0,.12,0-.08.07a1.15,1.15,0,0,1-.38,0s-.18-.41-.2-.46S25.76,29.56,25.77,29.54Z"/><path d="M24.81,29l.22.09a1.29,1.29,0,0,1,0,.23c.24.08,0,0,.15.08.19-.16.12.21.14.23a1.47,1.47,0,0,1-.23.14v.07H25v-.15h-.08l-.14-.23s-.12-.05-.15-.08-.06,0,.08-.07a1.79,1.79,0,0,1,0-.3Z"/><path d="M29.59,29.21s0,.05,0,.08.26.09-.08.15v-.07C29.39,29.42,29.45,29.17,29.59,29.21Z"/><path d="M25.87,29c.16-.12.25.29,0,.37v.07C25.68,29.5,25.8,29,25.87,29Z"/><path d="M42.1,29.48a2.29,2.29,0,0,0,0,.3C41.88,29.82,42,29.48,42.1,29.48Z"/><path d="M24.76,28.58s0,.05,0,.08c.18-.14,0,.29,0,.3a1.59,1.59,0,0,1-.45,0c0-.15,0-.17.09-.22s0,0,0-.07A1.33,1.33,0,0,0,24.76,28.58Z"/><path d="M24.14,27.35s.29.57,0,.37C24.08,27.7,24,27.26,24.14,27.35Z"/><path d="M45.89,28.18s.23.39.2.54c-.19,0-.17,0-.31.06L45.7,29s-.18,0-.23,0v-.22l.16-.07c0-.08,0-.22,0-.3a.6.6,0,0,1,.16-.07v-.15Z"/><path d="M23.13,26.4c.11,0,.09.1.14.16s.09,0,.15.08,0,.18,0,.23-.1-.05-.08.14h-.23s0,0,0-.08S23,26.39,23.13,26.4Z"/><path d="M24.72,26.33s0,.05,0,.08a1.5,1.5,0,0,1,.3.09c0,.08,0,.21,0,.3h-.07v.15c-.12-.09-.06.06-.08.07h-.15c0-.17.05,0-.07-.08C24.62,26.6,24.49,26.49,24.72,26.33Z"/><path d="M26.47,26.34c.11.06-.08.15-.08.15S26.35,26.28,26.47,26.34Z"/><path d="M46,27.13c.12.06.1.09.22.16v.08c.1.05.32,0,.45.1l-.08.15h-.15s0,.05,0,.07c-.24,0-.17-.11-.37-.09,0,0,0,.05,0,.07h-.15c-.45.13.46,0-.08.07,0,0-.13-.3-.14-.31l.16-.07c0-.06,0-.2.09-.22Z"/><path d="M22.26,25.6a1.43,1.43,0,0,1,.07.15h.08v.15h.08v.15h.08v.15c-.12.07,0,0-.08.15h-.15a1.15,1.15,0,0,0-.21-.31c.06-.18,0-.23.1-.44Z"/><path d="M24.26,25.11l.07.15h.08v.15h.15s0,0,0-.07h.08V25.2c.22,0,0,0,.07.08h.15s0,.05,0,.07c.19,0,.14-.08.38-.06a1.29,1.29,0,0,1,.06.23h.08a1.72,1.72,0,0,1,.06.3c.11-.07.15.08.15.08l-.24.14s0,.18,0,.22,0-.1-.08.07c-.09,0-.14,0-.23,0s0-.13-.07-.15a.73.73,0,0,0-.23,0s0-.14-.07-.15-.17,0-.23,0,0,0,0-.08c-.24-.06-.31,0-.53-.1,0-.14.06-.1-.07-.15v-.15a1.07,1.07,0,0,0,.16-.07c0-.08,0-.22,0-.3Z"/><path d="M21.31,24.88c.25,0,.1.13.14.31a1.19,1.19,0,0,0-.3,0C21.2,25,21.11,24.88,21.31,24.88Z"/><path d="M21.31,23.38s0,.05,0,.07h.15c0,.16,0,.23-.09.29v.08h-.07v-.15h-.08S21.28,23.19,21.31,23.38Z"/><path d="M47.3,24.57c.41-.07.18.33.06.3s0,.05,0,.08c-.27,0-.25-.32-.14-.24C47.26,24.6,47.17,24.59,47.3,24.57Z"/><path d="M21.55,23.16c.65,0-.08.15-.08.15S21.4,23.16,21.55,23.16Z"/><path d="M46.1,24.29l.38,0c0,.16,0,0,.07.08a1.1,1.1,0,0,0,0,.3s.06.42,0,.45v.08h-.15c-.22.06.24.09-.08.07V25.2a1.33,1.33,0,0,0-.3,0s0-.05,0-.07V25h.08c.05,0,0-.09.15-.07v-.15c.08,0,.09,0,.16-.07v-.07h-.15v-.08h-.07s0,0,0-.07H46C46,24.4,46,24.27,46.1,24.29Z"/><path d="M44.29,24h.15v.15a.82.82,0,0,1,.15.08v.15s.19,0,.23,0a1.32,1.32,0,0,0,0-.3c.09,0,.13-.15.15,0s-.05.24,0,.3H45s0,.05,0,.07a1.44,1.44,0,0,1,.23,0s.11.18.06.38h-.08v.15l-.15.07s0,.05,0,.08h-.15s0,.05,0,.07a.59.59,0,0,0-.16.07c0,.08,0,.07.07.15h.08v.15H45v.15H45V26h.08c0,.2-.1.21-.09.3h-.15s0,0,0-.08h-.15s0,0,0-.08h-.15s0,0,0-.08-.2,0-.22-.09,0-.18,0-.22h-.08s0-.29.08-.15V25.4s-.18,0-.07-.08h.07v-.15h.07c0-.08,0-.22,0-.3l.15-.07c0-.18-.1-.13-.06-.3a1.8,1.8,0,0,0-.23,0s0,0,0-.07H44.2C44.21,24.31,44.16,24,44.29,24Z"/><path d="M45.44,23.8c.35,0,.1.2.21.31s-.28,0-.16.07h-.15s0,0,0-.07S45.17,23.8,45.44,23.8Z"/><path d="M48.13,23.26a2.07,2.07,0,0,0,0,.3C47.72,23.7,47.93,23.34,48.13,23.26Z"/><path d="M46,22.48h.08c0,.09,0,.18.06.23s.16,0,.22.09a2.14,2.14,0,0,0,0,.3c-.07,0-.1-.06-.08.07s-.19,0-.23,0,0,.2,0,.22a1.14,1.14,0,0,1,.23,0v-.15c.09,0,.14,0,.23,0v.07a.72.72,0,0,1,.15.08c-.06.27-.06,0-.08.15s0,.26,0,.38-.14.07-.16.14h-.15s0,0,0-.07a1.07,1.07,0,0,1-.22-.09L46,23.75c-.12-.09-.1,0-.22-.16s0,.17-.07-.15h-.08a1.54,1.54,0,0,0,0-.23h.23v-.08h.08a2.64,2.64,0,0,0,0-.67Z"/><path d="M48.38,22.75c-.41.08-.15-.2-.22-.24A2,2,0,0,1,48.38,22.75Z"/><path d="M47.21,21.94V22h.15l.21.31h.08v.15s-.13-.06-.08.07-.22,0-.3,0,.16-.12-.07-.08c0,.14,0,0-.08.07a1.16,1.16,0,0,1,0,.22c.13.07,0-.1.07.08.46.09-.3-.07.07.08h.15s0,0,0-.07a1.21,1.21,0,0,0,.3.09v.15s-.23,0-.08.07h-.15s0,.05,0,.07l-.16.07c0,.06,0,.43.05.45s.34.13.44.17a1.23,1.23,0,0,0,0,.22H47.7c-.08.11,0,0-.16.07,0,0,0,.05,0,.08s-.26,0-.3,0,.06-.25,0-.38L47,23.65c-.07-.15,0-.2-.06-.38,0,0,.12.06.08-.07l-.22-.09c.07-.05-.18-.33.1-.52a3.54,3.54,0,0,1-.06-.38l.32-.21s0,0,0-.08Z"/><path d="M48.6,21.49v.3c-.31,0-.12-.16-.22-.24h.15C48.81,21.48,48.23,21.51,48.6,21.49Z"/><path d="M48.62,21.19c.1.06-.08.15-.08.15S48.49,21.12,48.62,21.19Z"/><path d="M49,20.68s0,0,0,.07-.08.15-.08.15,0,0,0-.07C48.71,20.92,48.83,20.67,49,20.68Z"/><path d="M47.91,20.25c0,.14.14.13.14.16s0,.05,0,.08H48c0,.11,0,.26,0,.37s.1,0,.06.23l-.15.07c-.06.12,0,.25,0,.38s-.11,0-.08.14l-.09.3s0,.05,0,.07c-.53.08-.36-.32-.42-.62l.16-.07s0-.05,0-.08h.15s0,0,0-.07-.1-.17-.06-.38h.08c0-.08,0-.14,0-.22s.14-.05.16-.07v-.15h.08v-.15Z"/><path class="cls-1" d="M10.81,12.33s0,.05,0,.08a.7.7,0,0,1,.23,0l.07.15c.18.05.43,0,.61,0l.07.15a.88.88,0,0,0,.15.08V13s-.12,0-.09.22h.08v.15H12c0,.1-.07.28,0,.37l.31-.06v.15l.22.16v.15a1.7,1.7,0,0,0,.3.09v-.07a.81.81,0,0,1,.23,0s0,.05,0,.07.16.17.29.24,0,.05,0,.08h.15v.15c.11.06.34,0,.45.1s0,.18,0,.22l.37.17s0,.32-.09.22a1,1,0,0,1-.08.15c.08,0,.22,0,.3,0s0,.05,0,.07l.3.09c0,.05-.05.35,0,.38s.34,0,.45,0v.07h.08v.15s-.13,0-.09.22l.22.16v.15c.24,0,.2-.13.23-.14h.15c0,.16-.05,0,.07.08a1.23,1.23,0,0,0,0,.37h.08l.14.23a1.21,1.21,0,0,1,.38,0l.14.23h.15v.15a1,1,0,0,0,.15.08,1.15,1.15,0,0,0,0,.3h.08c0,.07-.05.24,0,.3s.26,0,.3,0,0,.05,0,.08.16.17.29.24,0,.05,0,.08a1,1,0,0,0,.3,0c0,.16,0,0,.07.08a4,4,0,0,1,0,.67h-.08s0,.18,0,.22h-.08c-.07.35,0,0,.07.15a.3.3,0,0,1-.17.37s0,.05,0,.08h-.15l-.08.15H17v.08c-.06,0-.16,0-.23,0s0-.14-.14-.16v-.15c-.06,0-.18,0-.23,0v.07H16.3l-.08.14h-.08v.15s-.15,0-.16.07,0,.14,0,.22-.25,0-.3,0c0-.18.07,0-.07-.08a1.49,1.49,0,0,0,0-.22h-.07s0-.2,0-.22-.56-.2-.82-.27a1.64,1.64,0,0,0,0-.45h-.15s0,.05,0,.08c-.18,0-.35,0-.53,0v.07c-.19,0,0-.08-.15-.08v-.15a1.3,1.3,0,0,0,.15-.07v-.15l.15-.07c0-.14,0-.31,0-.45s-.16,0-.22-.09l-.14-.23c-.16-.06-.37,0-.53,0,0-.22,0-.29,0-.53,0,0-.14-.16-.14-.16s-.26,0-.38,0-.14-.42,0-.3a.74.74,0,0,1,.08-.15c-.13,0-.25,0-.38,0s0-.05,0-.07h-.15l-.07-.15h-.08s0-.28-.06-.3l-.22-.16v-.07c-.09-.07-.2,0-.22-.09s.58-.69.57-.72a1.24,1.24,0,0,1-.3,0c0-.13,0-.25,0-.37l.16-.07a1.12,1.12,0,0,1,0-.3s.11.11.15.08,0-.25,0-.3h-.15c.15.07-.07,0-.31.06a2.25,2.25,0,0,0,0-.3h-.15c0,.16,0,0-.08.07l.06.3h-.08a1.69,1.69,0,0,0,0,.3c-.06,0-.1-.06-.08.07l.22.09s.14.83,0,.82v.15a1.45,1.45,0,0,0-.3,0c0-.1,0-.19-.14-.23a2.67,2.67,0,0,1,.09-.29h.08c0-.1-.06-.3-.13-.31v-.15c.06,0,.1.06.08-.07h-.15l-.06-.23s-.21,0-.08.07c-.31,0-.13-.16-.22-.24a1,1,0,0,1,.38.09c.16,0-.18-.1.08-.07v-.15h.07a2.81,2.81,0,0,0,.09-.29h-.08c0-.21,0-.2-.06-.38-.14,0,0-.14-.22-.09,0,0,0,.21,0,.23s.08.17.06.23h-.08s0,0,0,.07-.13.16-.24.21,0,.05,0,.08h-.07v-.15l-.22-.16c0-.18.09-.43,0-.6l-.15-.08c0-.15.16-.16.09-.29a1.52,1.52,0,0,0-.38,0v-.15c0-.16,0,0,.08-.07a3.61,3.61,0,0,1,0-.53c.11.09.07-.07.08-.07l.22.09a1.24,1.24,0,0,1,0,.3c.09,0,.08,0,.16-.07v-.15h-.08a4.11,4.11,0,0,1,0-.52Z"/><path class="cls-1" d="M21.55,3.13c.12.09.07.15.21.24s0,.05,0,.07.32,0,.45.1l.07.15.22.16V4h.08c0,.08,0,.21,0,.3h.08v.15h.08a1.7,1.7,0,0,1,0,.3H22.6c0,.18,0,.34,0,.52.09,0,.16.13.37.09s-.2-.14.16-.06c0,0,0,.05,0,.07h.15c.43.17-.46,0,.07.08a1.38,1.38,0,0,0,0,.22h-.15a1.37,1.37,0,0,0,0,.22h.08c0,.23-.15.17-.16.22-.08.26.12.25.13.31s-.05.24,0,.38h.15l.08-.15c.06,0,.18,0,.23-.06a1.34,1.34,0,0,0,.14.23l.15.08c0,.08-.06.15,0,.23h-.08a.84.84,0,0,0-.09.22h.15a.82.82,0,0,1,.07.15h.08a1.73,1.73,0,0,0,0,.3c-.12,0-.19-.1-.22-.09s.19.1-.08.07c.13-.08-.15-.08-.15-.08s-.06.18-.16.22a2.06,2.06,0,0,1,0,.23c.06,0,.1-.06.07.08h.08l.08-.14c.08,0,.15.05.23,0A1.14,1.14,0,0,0,24,8H24V7.84h.07l.14.23h.08c0,.09-.06.14,0,.22h.08c0,.14-.07.31,0,.45l.22.16s0,.28.06.3.24,0,.3.09,0,.22.05.38h.08c0,.07,0,.16,0,.22h.07a1.92,1.92,0,0,0,.06.3H25l-.09.22h.15s0,0,0-.07h.08v-.15c.06,0,.31,0,.22.09h.08v.15h.08c0,.21-.06.29-.1.44h-.08c.06,0,0,.18.22.16l.08-.15a1.56,1.56,0,0,0,.23,0,1,1,0,0,0,0,.3l-.16.07s0,.05,0,.08-.15-.05-.23,0l-.09.22h.15s0,.13.07.15.22,0,.3,0c.65.26-.68-.1.07.08a.7.7,0,0,0,0,.22h.07v.15h.08c0,.13,0,0-.08.07a1,1,0,0,1,0,.22H26c0,.11,0,.26,0,.38.15.1,0,.09.07.15h.15s0,.05,0,.08.15,0,.22.09v.15l.36.32s0,.05,0,.07a1.08,1.08,0,0,0,.3,0,2.13,2.13,0,0,0,0-.23c.14-.06,0,.1.08-.07.12,0,.27,0,.38,0s-.18.08.07.08l-.1.37s-.25,0-.3,0,0,.1-.08.14,0,.05,0,.07,0,.08.06.23h.08c0,.08,0,.22,0,.3h.08a1.07,1.07,0,0,0,.06.23h.15a.8.8,0,0,0,0,.22h-.15s0,.05,0,.07c-.42,0,.25,0-.08.07h-.15s0,.05,0,.08-.1-.11-.3-.09c0,.13,0,0-.08.07v.15c.14,0,.05.08.07.15.36.06-.16.14-.16.14l-.06-.23a1.84,1.84,0,0,0-.22-.09c-.13.16-.12.27-.32.36v.07h-.15s0,.05,0,.07h-.23s0,0,0-.07-.22,0-.3,0,0,0,0-.07-.23,0-.3,0,0-.13-.07-.15-.14,0-.23,0l-.07-.15h-.15l-.21-.31c-.08,0-.16,0-.23,0s0-.17.1-.37h.08c.1-.07-.07-.08-.07-.08-.06-.19,0-.53,0-.75h-.08v-.15h-.15c0-.06,0-.17,0-.23h-.07s0-.18,0-.22h-.08c0-.07.48-.5.48-.5s-.23,0-.07-.08a.75.75,0,0,1-.23,0s0,0,0-.07-.27,0-.38,0v-.15c-.13.08,0-.06-.07-.08s-.06-.13-.07-.15.17,0,.23-.06.06-.14.08-.15h.07c0-.08,0-.16,0-.23h-.08s0,0,0-.07-.15,0-.23,0,0,0,0-.07c-.21-.12-.06-.09-.13-.31h-.08v-.15l-.22-.09c-.06-.06.16-.14.16-.14s0-.2,0-.22h-.08v-.07c-.14-.08-.15-.16-.29-.24s0,0,0-.07l.15-.07a1.68,1.68,0,0,1,0-.22c-.38,0,.2.07-.07-.08a1.26,1.26,0,0,1-.24.14c0-.25,0-.5,0-.75h-.07a3,3,0,0,1,0-.52h.08a1.18,1.18,0,0,1,0-.22c-.1-.05-.18,0-.3-.09s0-.15-.07-.15h-.15V8.2h-.08c.05-.17-.06,0,.08-.07V8h.07a4.32,4.32,0,0,0,.05-1c-.1-.06-.09,0-.22-.09s0,0,0-.08h-.15s-.13-.23-.14-.23H22V6.45H21.9V6.3h-.08c0-.06,0-.17,0-.22l-.22-.16c0-.19.09-.22.09-.22a2.15,2.15,0,0,0,0-.37h-.08s.07-.25.09-.3-.07.08-.07-.08c-.17-.05-.19,0-.3-.09l.56-.5h.15c0-.2.08-.15.08-.15s0-.18,0-.22-.14-.05-.14-.16h-.15c0,.09.06.38.06.38l-.23.06v.07h-.08v.07h-.15V4.33h-.08c.05-.17,0-.17.1-.37h.08s0-.22-.07-.08c0-.08.07-.18-.07-.15s0-.05,0-.08-.14-.05-.15-.08.05-.14,0-.22a.68.68,0,0,1,.15-.07V3.13Z"/><path class="cls-1" d="M56,3.64c0,.05.11.16.06.38h-.15a2.52,2.52,0,0,1,0,.45c-.09,0-.22,0-.23.06s0,.5-.11.67h-.07v.15l-.31.06a5.32,5.32,0,0,0-.06,1.2h.08v.15L55,6.81v.07c-.06,0-.23,0-.31.06,0,.2.1.31,0,.53h-.08s0,.17,0,.22-.23.14-.15,0-.3-.05-.15-.08c-.08,0-.05.09-.16.07v.15h.23s0,.05,0,.07.18.08,0,.08a.75.75,0,0,1,0,.22c0,.06-.18,0-.23.06s-.06.3-.1.37l-.24.14a2.7,2.7,0,0,0,0,.67l-.23.06a1.22,1.22,0,0,0,0,.45s.09,0,.07.15l-.16.07c-.07.15,0,.36,0,.52h-.08a1.32,1.32,0,0,0,0,.3s.16.07.07.15a.24.24,0,0,1-.16.07,1.47,1.47,0,0,1,0,.45l-.31.14a2.46,2.46,0,0,1,0,.67s-.14,0-.23.07,0,.05,0,.07h-.15s-.06.25-.09.3l-.16.07c0,.12.11.19.05.45l-.16.07a.77.77,0,0,0,0,.23h-.08c0,.14,0,.31,0,.45H52c-.05.2,0,.25-.1.44h-.07a4.47,4.47,0,0,0,0,.67c.06,0,.1-.06.07.08h-.08v.15h-.15c0,.07,0,.22,0,.3h-.08v.15h-.08a2.65,2.65,0,0,1-.09.29h-.08l-.09.3s-.26,0-.31.06,0,.05,0,.08h-.07s0,0,0-.08h-.08c0-.25,0-.5,0-.75l-.22-.09c0,.34,0,.55,0,.83h-.08v-.15h-.08a1.33,1.33,0,0,1,0-.22c-.14-.08,0,.1-.07-.08a3.16,3.16,0,0,0-.53,0l-.14-.23c-.21-.06-.08.1-.38.06-.09-.39-.24-.86.07-1.2.05-.07.13,0,.23-.06v-.15h.07c.06-.16,0-.45,0-.6a2.26,2.26,0,0,1,.3,0v-.15h.07c0-.14,0-.31,0-.45l.23-.06c.1-.48-.19-.32-.11-.76h.08c0-.09,0-.14,0-.22a.67.67,0,0,1,.16-.07v-.15h.15a1.73,1.73,0,0,0,0-.37h-.08a1.42,1.42,0,0,1,.1-.52h.08c0-.09,0-.22,0-.3s-.13,0-.07-.08l.24-.14a2.73,2.73,0,0,0,.17-.37c.42.07-.25,0,.07.08h.15s0,.05,0,.07h.08s0,0,0-.07a1.52,1.52,0,0,0,.38,0c.66-.19-.68,0,.08-.07,0-.16,0-.24.09-.3s0,0,0-.07-.11,0-.07-.15H52A1.16,1.16,0,0,1,52,9.66h.08c0-.19-.07-.23-.07-.23s0-.26,0-.38A1,1,0,0,0,52.23,9c0-.11,0-.27,0-.37h.08l.09-.22h.15s0,0,0-.07h.15c.07-.08,0-.27.1-.37L53,7.84c0-.07,0-.22,0-.3h.08a2,2,0,0,1,0-.37c-.08,0-.09.05-.07-.08h.08a4.2,4.2,0,0,1,0-.45h.08a2.47,2.47,0,0,0,0-.37l.15.08c-1.16.29-.06,0,.07.08h.15c0-.1-.06-.16.08-.14s0-.35-.05-.45l.15.08v.15s.09,0,.15.08,0,.05,0,.08h.15l.09-.29c.1-.08.14,0,.31-.06a1.13,1.13,0,0,1,0-.23c-.3,0,.12,0-.07-.08s-.06.07-.08.15l-.22-.09a1.48,1.48,0,0,0,.09-.22h.08V5.28h.08V5.13s.22,0,.23-.06,0-.56.11-.67h.15s.06-.14.08-.15.13,0,.23,0,0,0,0-.08h.08c-.06-.16,0,0-.15-.08V4h-.07s.1-.1.08-.15l.22.09v.15c.24.05-.06,0,.08-.07h.15s0,0,0-.08.21,0,.3,0C56,3.75,55.86,3.73,56,3.64Z"/><path class="cls-1" d="M39.34,0c0,.09,0,.28.06.38s.16,0,.22.09V.61l.15.08c0,.06,0,.16,0,.22h.08c0,.22,0,.45,0,.67h-.07c0,.11,0,.27,0,.38h-.08V2c-.15.06-.12.16-.24.21s0,.05,0,.08h-.08c0,.08,0,.14,0,.22a1.78,1.78,0,0,0,.22.09s0,0,0,.07.18,0,.23,0v.15h.08c0,.13,0,.13.06.23s-.2,0-.23.06,0,.23-.09.3h-.15s-.07.12-.08.15h-.08c-.06.13,0,.31,0,.45h-.08v.15c.14,0,.31,0,.45,0,.29.11-.31,0,.07.08a2.72,2.72,0,0,1,0,.3h.07a1.16,1.16,0,0,0,0,.22c-.14.06,0-.1-.08.07-.05,0-.18,0-.23,0s0,.13.06.3h.07a1,1,0,0,0,0,.22h-.08a2.46,2.46,0,0,1,0,1s-.14,0-.16.22h.08c0,.2,0,.39,0,.6h.15a4.21,4.21,0,0,1,0,.6h-.07c0,.17,0,.35,0,.52l.22.16c0,.08,0,.22,0,.3s-.08,0-.16.07V9s-.21,0-.23.06v.15a2.3,2.3,0,0,0,.45,0l.07.15c-.13,0-.11.08-.24.14s0,.05,0,.08c-.17,0-.36,0-.53,0v.15s.14.05.15.08S39,10,39,10s.22,0,.3.09,0,0-.08.07a1.53,1.53,0,0,1,0,.45h-.08l-.24.29h-.08v.15h-.08c-.05.28,0-.1.07.08s0,.22,0,.3.14.05.15.08a.76.76,0,0,1,0,.22H39c0,.12-.06.25,0,.37h.07v.15h.07l.07.15c.09,0,.14,0,.23,0v-.15c.37-.08-.16.14.16-.07h.15v.07c.12.07.1.1.22.16v.15l-.23.14s0,.05,0,.07h-.08s0,0,0-.07a2.78,2.78,0,0,1-.3,0c-.05.17.06,0-.08.07a1.35,1.35,0,0,1,0,.3h-.07s0,.18,0,.22h-.08s0,.18,0,.22h.08v.15h.08c0,.07,0,.15,0,.23-.2,0-.41,0-.6,0l-.07-.15c-.09,0-.14,0-.23,0a2.5,2.5,0,0,0,0,.37c-.17.07,0-.11-.08.07L38,14.11a1.4,1.4,0,0,0,0-.37h-.15s-.06.14-.08.15-.16,0-.23,0,0,.05,0,.07-.16,0-.23,0,.21.12-.08.07v-.07a1.33,1.33,0,0,1-.22-.09s0,0,0-.07h-.15c-.06-.05,0-.19-.06-.23h-.15c-.06,0,0-.15-.06-.23L36.29,13s0-.19,0-.23h-.07c0-.16,0-.26-.06-.38L36,12.36v-.15l.23-.06V12h.07c0-.14,0-.31,0-.45h.08c.06-.16,0-.15.09-.3h.07c0-.14,0,0-.07-.08,0-.25,0-.5,0-.75.34,0-.16,0,.08-.07s.27.13.45.1l.16-.22-.22-.16V9.94c-.08,0-.23,0-.3,0a2.42,2.42,0,0,0,0-.52h.15c.2,0,.2,0,.38-.05,0-.09,0-.13,0-.22h-.08a1.26,1.26,0,0,1-.06-.23h-.07c0-.19.05-.41,0-.6,0,0-.11,0-.06-.23,0,0,.13.08.15.08s.12-.15.09-.37h-.07a1.42,1.42,0,0,1,0-.22c-.12-.07,0,.07-.07-.08a1.65,1.65,0,0,0,.31-.13,1.12,1.12,0,0,1,0-.22,1.89,1.89,0,0,0-.3,0V6.94l.24-.14a2,2,0,0,0,.1-.45h.08c0-.08,0-.23,0-.3L38,5.86c0-.08,0-.14,0-.22H37.9c-.08-.19-.3-.26-.2-.61,0-.06.18,0,.23-.06V4.8H38V4.66h.08V4.51h.07a1.13,1.13,0,0,1,.09-.22h.08a2.49,2.49,0,0,0,0-.53l-.22-.16c-.06-.3.12-.61.12-.82h-.08a1.28,1.28,0,0,1,0-.3l.24-.14c0-.06,0-.17,0-.22h.08V2h.08c.06-.19,0-.27-.05-.38h-.15V1.45c.44,0-.28,0,.08-.07.16,0,.53,0,.53,0S39.4,1,39.44.9s-.13-.07-.15-.08a2,2,0,0,0,0,.3c-.16.07,0-.1-.08.07-.06,0-.26,0-.3,0s0,.05,0,.08h-.15c-.37-.15.39,0-.07-.08.05-.07,0-.15,0-.23a.64.64,0,0,1,.16-.07V.8H39c0-.29,0-.37,0-.68A2.55,2.55,0,0,0,39.34,0Z"/><path class="cls-1" d="M33.46,22.13l.07.15h.08v.15h.08a2.26,2.26,0,0,1,0,.23h-.08c0,.13,0,.24,0,.38h.07v.15c-.08,0-.08-.06-.08.07h-.15s.07-.13-.07-.08c0-.41,0-.61,0-1Z"/><path class="cls-1" d="M32.93,22h.15c.05.17-.08,0,.07.08a1.06,1.06,0,0,0,0,.22h.08v.15c0,.05-.13,0-.23.06v.15a1.24,1.24,0,0,0-.38,0c.06-.18,0-.38.1-.52Z"/><path class="cls-1" d="M13.5,18.92c.3,0,.24.14.29.17s-.3,0-.15.07a1.51,1.51,0,0,0-.3,0C13.41,19,13.32,18.93,13.5,18.92Z"/><path class="cls-1" d="M35.62,20c.5,0,.26.17.37.24l.37.09v-.07h.23s0,0,0-.08c.25,0-.08,0,.07.08a1.51,1.51,0,0,0,.46,0s0-.05,0-.08h.15s0,0,0-.07c.24,0,.1.07.15.08a1.74,1.74,0,0,0,.3,0s0,0,0-.08a3.4,3.4,0,0,1,.83,0s0,.05,0,.07h.15s.06.3.06.3.17,0,.23,0,0,.13.06.23l.22.16s0,.05,0,.08h.07s0,.18,0,.23h.08v.15h.08c.09.42-.2.66-.13,1l.29.24v.15h-.08c0,.12,0,.26,0,.38l-.16.07c-.08.35.07.53,0,.83h-.08v.15h-.07a1.79,1.79,0,0,0,0,.45h.07c0,.18-.12.25-.18.44-.21,0-.16.07-.16.07s-.18,0-.23,0v-.15h.08a1.58,1.58,0,0,0,0-.3h-.08v-.15h-.08c-.32.21.21,0-.15.06v.15h-.07a2.85,2.85,0,0,1,0,.3h-.08s0,.05,0,.08-.16,0-.23,0,0,.05,0,.07H38l.06.23c.13,0,.24,0,.38,0s-.06-.07.16-.07c0,.14,0,.31,0,.45h-.07v.15l-.15.07v.15h-.08l-.16.22c-.06,0-.2,0-.23.06s0,.39-.1.52a1,1,0,0,1-.16.07s0,.05,0,.07h-.15s0,.05,0,.08-.18,0-.23,0-.07.2-.09.22-.2,0-.23.06l-.09.22c-.08,0-.22,0-.3,0s0,.05,0,.07l-.16.07a1.13,1.13,0,0,1,0,.23.83.83,0,0,1,.15.08s0,.21,0,.23c-.19,0-.23,0-.46.05a.61.61,0,0,1,0,.07h-.15s-.06.22-.09.22c-.22,0-.25-.23-.29-.24a3.21,3.21,0,0,0-.76,0s0,0,0-.07-.17,0-.23,0-.05-.11-.07-.15h-.07V28.1c-.09-.07-.27,0-.38-.09s0-.12-.07-.15h-.15s0-.05,0-.08-.24,0-.3,0a.78.78,0,0,1-.07-.15h-.08v-.15h-.08c0-.06,0-.18,0-.23h-.08L33,27h-.15v-.07h-.08c-.07-.13,0-.37,0-.53s-.14-.06-.15-.08v-.15h-.07s0-.18,0-.22h-.07c0-.09,0-.21,0-.3h-.08c0-.18.08-.43,0-.6h-.15a1.21,1.21,0,0,1-.06-.23h-.07a.27.27,0,0,1,.17-.29c0-.14,0,0-.07-.08a1.76,1.76,0,0,1,0-.3h.07c.06-.17,0-.18.09-.37h.08a1.16,1.16,0,0,0-.05-.45h-.07a4.43,4.43,0,0,1,0-.52h.15a.67.67,0,0,0,.07.15c.08,0,.22,0,.3,0l.07.15h.08a1.07,1.07,0,0,0,0,.22H33a1,1,0,0,1,0,.22h-.07c0,.15.09.12.06.23s.17,0,.23,0,.16-.29.17-.29a1.92,1.92,0,0,1,.53,0s.19-.4,0-.3c0-.09,0-.21,0-.3s-.05.08-.07-.08.1.06.08-.07a4.19,4.19,0,0,0,.61,0c.1,0-.09-.09.16-.07,0,0,0,.05,0,.07l.3,0,.09-.3a2.63,2.63,0,0,1-.3-.09v-.15a1.44,1.44,0,0,1,.38,0s.06-.11.08-.15a2.05,2.05,0,0,0-.22-.16v-.07h-.15s0,0,0-.07a3.1,3.1,0,0,1-.37-.1,1.41,1.41,0,0,0,0-.22h.15l.16-.22c.09,0,.14.05.23,0s0,.05,0,.07.12.12.21.24a1,1,0,0,1,.3,0s0-.18,0-.22h-.08v-.15h-.07c0-.09,0-.21,0-.3s-.22,0-.3,0v.15H35V21c-.31,0,.13,0-.08.07a1.88,1.88,0,0,1-.45,0c-.08.18.09,0-.08.07a1.1,1.1,0,0,1,0,.3s-.12.05-.16.07v.15h-.07v.15l-.16.07c0,.14,0,.31,0,.45h-.15c0-.16,0-.24.09-.3s0,0,0-.08l-.22-.16c.06-.18,0-.26.1-.45h.08c0-.07,0-.16,0-.22h.07c.07,0-.1,0-.06-.23.09,0,.14,0,.23,0l.07.15a1.06,1.06,0,0,1,.23,0,1.67,1.67,0,0,0,0-.45,2.86,2.86,0,0,1,.38-.06s0,0,0-.08h.15c.06-.05,0-.25.1-.37s.07,0,.08-.07h.15s-.06.15.07.08c0,.15,0,0,.07.08a3.44,3.44,0,0,0,0,.45h.08c-.15,0,.16-.14.16-.14v-.15C35.35,20.44,35.42,20,35.62,20Z"/><path class="cls-1" d="M10.25,11.4h.15a.73.73,0,0,0,.07.15h.15c.08.14,0,.36.13.46,0,0,0,.05,0,.08l-.16.07v.15h-.15c-.09.11,0,.12-.09.29,0,0-.14.06-.16.07a1.62,1.62,0,0,0,0-.45s-.15.08-.16.07c.51,0-.16.07-.16.07s-.21.06-.23.06a5.2,5.2,0,0,0,0-.52H9.62v-.15c.19,0,0-.09.16-.07,0,0,0,.05,0,.07a1.21,1.21,0,0,0,.3,0c.35-.1-.37-.07.08-.07a2.91,2.91,0,0,0,0-.3Z"/><path class="cls-1" d="M23.38,5.85c.56,0-.08.14-.08.14S23.23,5.84,23.38,5.85Z"/><path class="cls-1" d="M39.77,3.32V3.4c0,.16-.08.14-.08.15V3.47C39.53,3.56,39.64,3.31,39.77,3.32Z"/><path d="M224,45.83V28.74h-7.07v2.68A8,8,0,0,0,214.13,29a8.77,8.77,0,0,0-3.79-.72,7.89,7.89,0,0,0-5.82,2.22q-2.23,2.22-2.23,6.44A9.52,9.52,0,0,0,204,42.93a7.65,7.65,0,0,0,6.38,3.17,8.45,8.45,0,0,0,3.76-.85,7.72,7.72,0,0,0,2.23-1.76v2.74a3.88,3.88,0,0,1-.81,2.8,3.33,3.33,0,0,1-2.44.8,3.85,3.85,0,0,1-2.1-.53,2,2,0,0,1-.71-1l-7.21,1.57A5.2,5.2,0,0,0,205,52.54q2.22,1.64,8.15,1.64a22.39,22.39,0,0,0,4.61-.43,8.58,8.58,0,0,0,3.32-1.38,7,7,0,0,0,2.1-2.5,7.05,7.05,0,0,0,.79-3.25Zm-8.5-5.45a3.42,3.42,0,0,1-4.76,0,4.06,4.06,0,0,1-.91-2.91,4.75,4.75,0,0,1,.86-3.2,2.94,2.94,0,0,1,2.31-1,3.26,3.26,0,0,1,2.45,1,4.21,4.21,0,0,1,1,3A4.08,4.08,0,0,1,215.48,40.38Z"/></svg>