<svg id="レイヤー_1" data-name="レイヤー 1" xmlns="http://www.w3.org/2000/svg" viewBox="0 0 119.06 52.47"><defs><style>.cls-1{fill:#212121;}.cls-2{fill:#ff438b;}.cls-3{fill:#616161;}</style></defs><title>koilabo</title><polygon class="cls-1" points="0 28.3 5.55 21.47 8.94 15 11.87 15.41 13.14 16.45 12.03 18.68 9.01 22.67 4.91 26.72 0 28.3"/><polygon class="cls-1" points="3.44 50.85 0.86 48.11 3.5 45.58 6.41 37.02 9.24 39.23 9.44 42.24 6.86 48.72 3.44 50.85"/><polygon class="cls-1" points="46.46 12.95 32.95 12.95 32.95 19.19 32.95 27.38 31.1 31.05 27.89 31.9 22.29 26.46 25.25 26.46 28.64 26.46 28.64 18.03 28.64 12.95 22.18 12.95 18.09 26.18 11.06 32.63 6.36 34.51 3.5 33.41 9.45 29.86 14.64 24.26 17.98 12.95 4.62 12.95 1.13 9.99 22.56 9.99 27.02 9.99 43.17 9.99 46.13 7.89 49.2 10.69 46.46 12.95"/><polygon class="cls-1" points="32.41 52.47 19.59 52.47 15.46 51.28 14.16 47.67 14.16 36.42 16.15 34.92 18.2 36.37 18.2 46.98 20.13 48.59 30.63 48.59 33.38 46.65 34.35 40.52 36.42 43.41 36.28 46.33 38.79 48.41 36.44 51.36 32.41 52.47"/><polygon class="cls-1" points="28.59 43.05 24.89 42.24 26.38 40.3 21.32 34.33 23.2 32.87 27.73 35.92 30.79 40.62 28.59 43.05"/><path class="cls-1" d="M44.9,38.16,40.34,37l2-2.14s-5.11-6.3-7.48-8.29L36.71,25l6.65,4.76,4,5.53Z" transform="translate(0 -8.68)"/><path class="cls-2" d="M27.68,8.68h-.39l-1.77,1-.95,1.21-.95-1.21-1.77-1h-.39l-1.6.75-.25.4V12.6l5,5.08,5-5.08V9.83l-.25-.4Z" transform="translate(0 -8.68)"/><path class="cls-3" d="M42.49,55.11l.27-.21.74-1.66,0-1.38,1.33.35,1.8-.26.28-.2.74-1.4,0-.42-1.49-2L37,43.89l2,9.42,1.49,2,.39.15Z" transform="translate(0 -8.68)"/><path class="cls-2" d="M108.65,19.77l-.34.08-1.4,1.21-.62,1.25-1.07-.9-1.76-.54-.34.07-1.28,1-.15.4.52,2.47,5.37,3.59L111,22.91l-.52-2.47-.3-.31Z" transform="translate(0 -8.68)"/><path class="cls-2" d="M118.35,27.16,118.1,27l-1.58-.15-1.15.36-.08-1.2-.72-1.42-.25-.17L113,24.18l-.34.15-1.23,1.8,1,5.49,5.47-1.09,1.23-1.8v-.37Z" transform="translate(0 -8.68)"/><path class="cls-3" d="M53.89,40.38H75c-.09,7.31-2.45,10-13.37,18.11l2.06,2.67c11.14-8.26,14.71-11.7,14.71-20.81v-3H53.89Z" transform="translate(0 -8.68)"/><path class="cls-1" d="M106.24,43.19,105,44l-1.46,1c.46.61.87,1.17,1.24,1.68A45.22,45.22,0,0,1,109.55,55l.68,1.42,3-1.33A50.19,50.19,0,0,0,106.24,43.19Z" transform="translate(0 -8.68)"/><path class="cls-1" d="M86.07,45.47c0,2.11-.39,3.7-5.16,9.37l2.54,2c4.69-5.63,6-8,6-11.4l-3.35-2.24Z" transform="translate(0 -8.68)"/><polygon class="cls-1" points="72.25 19.01 53.87 19.01 53.87 22.23 75.79 22.22 78.76 19.77 75.44 16.74 72.25 19.01"/><polygon class="cls-3" points="109.15 29.77 112.01 27.42 108.81 24.5 105.77 26.66 98.63 26.66 98.63 17.46 95.19 17.46 95.19 26.66 82.54 26.66 82.54 29.76 95.1 29.76 95.08 29.77 95.19 29.77 95.19 52.47 98.63 52.47 98.63 29.77 109.15 29.77"/></svg>